<?xml version="1.0" standalone="no"?>
<!DOCTYPE svg PUBLIC "-//W3C//DTD SVG 1.1//EN" "http://www.w3.org/Graphics/SVG/1.1/DTD/svg11.dtd" >
<svg xmlns="http://www.w3.org/2000/svg" xmlns:xlink="http://www.w3.org/1999/xlink" version="1.1">
<metadata></metadata>
<defs>
<font id="cafe___breweryregular" horiz-adv-x="1312" >
<font-face units-per-em="2048" ascent="1536" descent="-512" />
<missing-glyph horiz-adv-x="512" />
<glyph horiz-adv-x="0" />
<glyph horiz-adv-x="682" />
<glyph unicode=" "  horiz-adv-x="512" />
<glyph unicode="&#x09;" horiz-adv-x="512" />
<glyph unicode="&#xa0;" horiz-adv-x="512" />
<glyph unicode="!" horiz-adv-x="290" d="M68 1509h47h32.5t14.5 2q-2 -158 -2 -325v-662v-307h-64q-2 84 -4 184.5t-4 208t-5 215t-5 207.5q-6 233 -10 477zM78 106l106 5l-2 -107h-98z" />
<glyph unicode="&#x22;" horiz-adv-x="374" d="M25 1538h71h27q0 -2 -2 -53t-4 -113q-4 -72 -6 -166l-68 -6zM188 1538h72h27q0 -2 -2 -53t-4 -113q-4 -72 -7 -166l-67 -6z" />
<glyph unicode="#" horiz-adv-x="833" d="M8 583.5v14.5v12h283h120.5h124t116 1t98.5 1l2 -67q-106 -4 -234.5 -7t-241.5 -8q-131 -4 -264 -6q-2 23 -2 43q-2 8 -2 16.5zM14 845.5v14.5v12h283h120.5h124t116 1t98.5 1l2 -67q-106 -4 -234.5 -7t-240.5 -7q-131 -4 -265 -7q-2 23 -2 43q-2 8 -2 16.5zM104 254 l121 917l49 -8l50 -8l-8 -40q-7 -40 -17 -103.5t-23.5 -144.5t-27.5 -167q-33 -201 -76 -452zM371 254l121 917l49 -8l49 -8l-8 -40q-7 -40 -17 -103.5t-23.5 -144.5t-27.5 -167q-33 -201 -76 -452z" />
<glyph unicode="$" horiz-adv-x="890" d="M29 1028q0 92 30.5 156.5t79.5 106.5t113.5 60.5t132.5 18.5q106 0 182 -33.5t135 -109.5l-71 -66q-43 63 -107.5 93t-132.5 30q-53 0 -102 -17.5t-88 -51t-62.5 -82t-23.5 -111.5q0 -74 49 -119t123.5 -77.5t161 -61.5t161 -71t123.5 -105.5t49 -165.5 q0 -57 -27.5 -107.5t-75.5 -88.5t-113.5 -59.5t-141.5 -21.5q-84 0 -150.5 15.5t-115.5 37t-81 42t-46 32.5l63 78q18 -18 48 -38.5t71 -38t92 -29t115 -11.5q51 0 99 14.5t86 41t61.5 63.5t23.5 80q-2 80 -52 127t-124 81t-159 61.5t-157.5 67.5t-120.5 100.5t-48 158.5z M332 1337q0 84 1 132.5t3 48.5l76 4l28 -1522q-12 0 -22 2q-10 0 -21.5 1t-21.5 1q-29 0 -29 -6q0 -2 -1 67.5t-3 184.5t-3 261t-3 295.5t-3 290t-1 240.5z" />
<glyph unicode="%" horiz-adv-x="1421" d="M14 881v22q4 86 30 148.5t64.5 103.5t89 60.5t103.5 19.5q55 0 110.5 -22.5t98.5 -65.5t69.5 -106.5t26.5 -143.5t-27.5 -141.5t-72.5 -104.5t-101.5 -64.5t-113.5 -21.5q-53 0 -103.5 18.5t-88.5 57.5t-61.5 98.5t-23.5 141.5zM90 874q0 -55 16.5 -97t44 -69.5t63.5 -42 t75 -14.5q41 0 84 17.5t77.5 51.5t56 86t21.5 120q0 55 -17 97t-47 70.5t-68 43t-77 14.5t-77.5 -14.5t-69.5 -45t-52.5 -76t-27.5 -106.5q-2 -10 -2 -18v-17zM342 43l328 737q143 324 325 740q23 -18 43 -31q8 -6 16.5 -12.5t14.5 -10.5q8 -6 12 -8q-2 0 -31.5 -63.5 t-76.5 -166t-107.5 -233.5t-124.5 -268q-147 -322 -333 -731zM762 430v23q4 86 29.5 148.5t64.5 103t89 60t104 19.5q55 0 110 -22.5t98 -65.5t70 -106.5t27 -143.5t-28 -141t-73 -104t-101 -64.5t-114 -21.5q-53 0 -103 18.5t-88 57t-61.5 98t-23.5 141.5zM838 424 q0 -55 16 -97t44 -70t63.5 -42t74.5 -14q41 0 84 17.5t78 51t56.5 86t21.5 119.5q0 55 -17.5 97t-47 71t-67.5 43t-77 14t-78 -14t-69.5 -45t-52 -76t-27.5 -106q-2 -10 -2 -18.5v-16.5z" />
<glyph unicode="&#x26;" horiz-adv-x="1292" d="M2 428q0 154 61.5 256t153.5 158l55 -76q-84 -45 -135 -138t-51 -210q0 -82 33 -143.5t86 -103.5t123.5 -62.5t144.5 -20.5q80 0 160 24.5t143.5 74t102.5 122t39 168.5q0 63 -22 113.5t-56 91.5l92 4q68 -102 67 -235q0 -109 -46 -193t-121.5 -141.5t-170 -87 t-192.5 -29.5q-90 0 -174 25.5t-148.5 79t-104.5 133t-40 190.5zM106 1014q0 90 33 155.5t85 108.5t120 63.5t135 20.5q100 0 194.5 -41t147.5 -119l-61 -49q-35 59 -106.5 91t-153.5 32q-55 0 -110.5 -16.5t-100.5 -48t-74 -81t-29 -114.5q0 -45 15.5 -83t35 -66.5 t35.5 -44.5l17 -17l1259 -1084l-71 -63q-238 209 -467 412q-98 86 -203 177t-206 181t-196.5 174t-171.5 152h3q-12 8 -34 30.5t-43.5 55t-37 77t-15.5 97.5zM676 700.5v14.5v12h201h187t189 2l2 -67q-106 -4 -208.5 -7.5t-184.5 -7.5q-96 -4 -182 -6q-2 23 -2 43 q-2 8 -2 16.5z" />
<glyph unicode="'" horiz-adv-x="217" d="M25 1538h71h27q0 -2 -2 -53t-4 -113q-4 -72 -6 -166l-68 -6z" />
<glyph unicode="(" horiz-adv-x="577" d="M18 700q0 182 49.5 347t119 293t145.5 210t129 101l16 -97q-61 -25 -127.5 -110.5t-122 -205.5t-90.5 -259t-35 -268q0 -154 40 -284t99.5 -231.5t130 -169t130.5 -94.5l-21 -88q-61 16 -141 84t-151.5 178.5t-121 260t-49.5 333.5z" />
<glyph unicode=")" horiz-adv-x="567" d="M2 -68q59 27 129 94.5t130.5 169t100 231.5t39.5 284q0 129 -35.5 268t-90 259t-121 206t-127.5 110l16 97q53 -18 129 -100.5t144.5 -210.5t117.5 -292.5t49 -347.5q0 -184 -49 -333.5t-120.5 -260t-151.5 -178t-139 -84.5z" />
<glyph unicode="*" horiz-adv-x="1064" d="M20 707v12l359 24l-262 248l61 64l277 -246v375h96v-369l250 258l65 -57l-239 -273h47t24.5 -1t23.5 -1t42 -1t81 -3t142 -4v-65l-342 -21q0 -2 12.5 -15.5t33 -33.5t47 -47t55.5 -53q68 -66 151 -146l-47 -55q-94 78 -166 137q-31 25 -60.5 49.5t-53 44t-37.5 31.5 l-15 12v-14q0 -29 -1 -95.5t-3 -135.5q-2 -82 -2 -176l-90 -3v316v119q-47 -53 -91 -103.5t-79 -89.5q-41 -45 -76 -86q-18 18 -30 33q-10 12 -19.5 22.5t-7.5 10.5l115 135q23 25 42 49.5t35 44.5q18 23 37 43h-186q-82 0 -182 2q-2 23 -4 39q-2 6 -2.5 13t-0.5 12z" />
<glyph unicode="+" horiz-adv-x="784" d="M0 700.5v14.5v12h262h230.5t207.5 2l2 -67q-106 -4 -228 -7.5t-226 -7.5q-123 -4 -244 -6q-2 23 -2 43q-2 8 -2 16.5zM307 283v2v23.5t1 67.5t2 131t2 218t3 328h66q2 -145 5 -254t5 -190t4 -136t2 -92q2 -84 4 -96z" />
<glyph unicode="," horiz-adv-x="354" d="M-23 -152l107 277l121 -66l-182 -239z" />
<glyph unicode="-" horiz-adv-x="659" d="M0 700.5v14.5v12h201h187t190 2l2 -67q-106 -4 -209 -7.5t-185 -7.5q-96 -4 -182 -6q-2 23 -2 43q-2 8 -2 16.5z" />
<glyph unicode="." horiz-adv-x="354" d="M43 125l121 4l-2 -127l-113 2z" />
<glyph unicode="/" horiz-adv-x="770" d="M8 43l328 737q143 324 326 740q23 -18 43 -31q8 -6 16 -12.5t14 -10.5q8 -6 13 -8q-2 0 -32 -63.5t-77 -166t-107.5 -233.5t-123.5 -268q-147 -322 -334 -731z" />
<glyph unicode="0" horiz-adv-x="1183" d="M29 717q0 14 1 27.5t1 27.5q6 193 54 333t122 232.5t167 136.5t189 44q106 0 205.5 -50.5t176.5 -146.5t123 -237.5t46 -323.5q-4 -184 -55 -326.5t-133 -239t-185.5 -146.5t-208.5 -50q-96 0 -187 43t-161.5 132t-112.5 224t-42 320zM106 737q0 -160 39 -281.5 t102.5 -202.5t144.5 -122t167 -41q88 0 172 43t149.5 129t105.5 215t40 301q0 162 -39 283t-101.5 201.5t-143 121.5t-167.5 41q-86 0 -167.5 -41t-147 -121.5t-108 -203.5t-46.5 -285v-37zM479 688l86 86l84 -86l-84 -98z" />
<glyph unicode="1" horiz-adv-x="649" d="M22.5 75.5q-2.5 12.5 0.5 16.5h184h175t183 2l2 -67q-106 -4 -202.5 -7.5t-169.5 -7.5q-86 -4 -162 -6q-4 23 -6 41q-2 16 -4.5 28.5zM68 1303q-2 0 25.5 31.5t60.5 70.5q37 45 88 100l80 4l28 -1468q-10 0 -22 2q-10 0 -23.5 1t-23.5 1q-12 0 -21.5 -1t-9.5 -5 q0 -2 0 46v130t-1 190.5t-1 228.5v242.5v233.5v283l-119 -129z" />
<glyph unicode="2" horiz-adv-x="946" d="M12 6v90l686 914l10 14q9 14 19 37.5t18.5 55.5t8.5 67q0 63 -26 110t-65.5 76t-88 43t-93.5 14q-51 0 -101 -14t-93 -38.5t-74 -60.5t-43 -79l-72 33q20 57 62.5 103t96.5 79t116.5 51.5t126.5 18.5q55 0 116.5 -19.5t112.5 -60.5t84 -105.5t33 -152.5 q0 -78 -27.5 -133.5t-44.5 -75.5h2q-61 -88 -142 -196.5t-170 -224.5t-179 -233.5t-166 -226.5h141h197.5t210 1t178.5 1l2 -67q-53 -2 -116.5 -4.5t-133.5 -3.5t-139.5 -3t-134.5 -4q-154 -4 -312 -6z" />
<glyph unicode="3" horiz-adv-x="974" d="M31 27l14 75q111 -18 209 -18q127 0 226.5 25.5t167 67.5t103 94.5t35.5 107.5q0 49 -31.5 97t-97 87t-166 63.5t-239.5 28.5l-6 56q125 4 214 33.5t147.5 75.5t86 105.5t27.5 121.5q0 70 -34 139t-96.5 123.5t-153.5 88.5t-204 34q-43 0 -88 -6.5t-94 -16.5l-4 90 q45 8 87 11t83 3q141 0 249.5 -39.5t182.5 -104t113 -146.5t39 -168q0 -106 -62.5 -205.5t-191.5 -163.5q174 -55 253 -141t79 -178q0 -70 -42 -135.5t-121 -117t-189.5 -83t-245.5 -31.5q-59 0 -122 6t-128 21z" />
<glyph unicode="4" horiz-adv-x="892" d="M10 705l641 815q2 -2 4 -2l74 4l14 -795q23 0 45.5 1t45.5 1l2 -67q-23 -2 -46.5 -2.5t-46.5 -0.5l15 -659q-12 0 -25 2q-10 0 -22.5 1t-22.5 1q-33 0 -33 -6v197v210.5t-2 249.5q-94 -4 -204.5 -6t-208.5 -4l-226 -4q-2 12 -2 25q0 10 -1 20t-1 19zM102 709q29 0 94.5 3 t145.5 6t163 6t148 3v76q0 76 1 156.5t2 156.5t2 143.5t1 118.5q-31 -43 -76.5 -99t-99 -119.5t-111 -129t-108.5 -126t-94 -112t-68 -83.5z" />
<glyph unicode="5" horiz-adv-x="915" d="M10 23l10 75q68 -12 130 -12q135 0 239.5 51t177 134t110.5 187.5t38 211.5q0 94 -31 182t-95.5 155.5t-162.5 108.5t-233 41q-37 0 -77 -3t-83 -11l-4 362h299h126.5h128t119 1t101.5 1v-67l-686 -19q0 -66 1 -107.5t2 -66t2 -33.5l1 -10l2 31v-10q23 2 44 3t44 1 q156 0 268.5 -46t186 -123t108.5 -177.5t35 -206.5q0 -121 -43 -242t-125 -217t-199.5 -155.5t-267.5 -59.5q-84 0 -166 21z" />
<glyph unicode="6" horiz-adv-x="993" d="M6 449q0 66 15.5 124t44.5 117q63 152 125.5 299.5t111.5 265.5q57 139 111 265q23 -16 43 -29q16 -10 29.5 -19.5t13.5 -13.5l-24 -53q-25 -53 -67 -141t-94.5 -204t-107.5 -241q59 35 127.5 52.5t138.5 17.5q82 0 161 -25.5t140.5 -78t98 -132.5t36.5 -188 q0 -121 -36.5 -209t-98 -145.5t-139.5 -85t-160 -27.5q-86 0 -171 29.5t-150.5 87t-106.5 141.5t-41 193zM83 461q1 -10 1 -29q0 -84 31.5 -148.5t83 -107.5t117 -65.5t135.5 -22.5q66 0 130 21.5t116.5 64.5t87 108.5t42.5 155.5q0 10 1 20.5t1 20.5q0 86 -30.5 150.5 t-80.5 108.5t-115.5 65.5t-133.5 21.5q-92 0 -179 -40t-140 -121q-31 -76 -44.5 -115t-18.5 -58.5t-4 -29.5z" />
<glyph unicode="7" horiz-adv-x="903" d="M20 1493v12l793 2v-65q-154 -406 -272 -725q-51 -135 -99.5 -265t-87.5 -231.5t-62 -162.5l-22 -62l-69 47l21 59q22 60 58.5 158t84 224t96.5 257t96 257t84 224.5t59 157.5l23 60l-31 -1q-30 -1 -79.5 -3t-112 -3t-127.5 -3q-154 -6 -348 -11q-2 23 -2 43 q-2 8 -2.5 16.5t-0.5 14.5z" />
<glyph unicode="8" horiz-adv-x="1144" d="M18 526q0 74 17.5 136.5t45.5 117t63.5 98.5t74.5 80l31 -88q-55 -59 -105.5 -143t-50.5 -190q0 -117 36 -203t94.5 -141.5t135 -83t156.5 -27.5q86 0 171 30.5t150.5 89t106.5 145.5t41 198q0 55 -14.5 101t-36 84t-48 71t-50.5 63l30 90q37 -37 73 -82t64.5 -99 t46 -117.5t17.5 -137.5q0 -123 -48 -220t-127 -162.5t-178.5 -100.5t-201.5 -35q-94 0 -183 31.5t-158 96.5t-111 164t-42 234zM162 1077q2 106 35.5 187.5t87 136.5t121 83.5t139.5 28.5q68 0 136.5 -28.5t121.5 -87t87 -146.5t34 -209q0 -98 -36 -174.5t-93.5 -130 t-130 -81t-146.5 -27.5q-72 0 -136.5 26.5t-113.5 81t-77.5 139t-28.5 201.5zM238 1079q0 -96 23.5 -164.5t63.5 -113.5t93 -66.5t110 -21.5q59 0 115.5 22.5t100.5 64.5t71 103.5t27 140.5q0 98 -25.5 170t-67.5 120t-95.5 70.5t-108.5 22.5t-110.5 -22.5t-98.5 -67.5 t-69.5 -109.5t-28.5 -148.5z" />
<glyph unicode="9" horiz-adv-x="983" d="M12 1044q0 121 37 209t98.5 145.5t139.5 85t159 27.5q86 0 171 -29.5t151 -87t106.5 -141.5t40.5 -190q0 -66 -15 -124.5t-44 -117.5q-66 -154 -127 -300t-111 -265q-57 -139 -110 -264q-25 14 -43 26q-16 10 -29.5 20.5t-13.5 14.5l24 53q25 54 67 142t94 203.5 t108 240.5q-59 -35 -128 -53t-138 -18q-84 0 -162 25.5t-139.5 78.5t-98.5 132t-37 187zM92 1032q0 -86 31 -150.5t81 -108.5t115.5 -65.5t133.5 -21.5q80 0 149.5 29.5t121.5 82t82 121t30 148.5q0 82 -35 149.5t-90.5 115.5t-126 75t-144.5 27q-61 0 -118.5 -20.5 t-104.5 -63.5t-80 -112t-43 -165q-2 -10 -2 -20.5v-20.5z" />
<glyph unicode=":" horiz-adv-x="342" d="M43 227l121 4l-2 -127l-113 2zM43 739l121 4l-2 -127l-113 2z" />
<glyph unicode=";" horiz-adv-x="352" d="M-23 -49l107 276l121 -65l-182 -240zM84 739l121 4l-2 -127l-113 2z" />
<glyph unicode="&#x3c;" horiz-adv-x="1024" d="M12 686v25l38 21q38 22 99.5 58.5t140.5 84t163 96.5q193 115 440 262q14 -23 27 -41q4 -8 9 -15.5l9 -13.5q4 -8 8 -12l-133 -72q-59 -33 -135 -73.5t-156 -83.5q-188 -100 -424 -230l842 -612q-16 -20 -27 -39l-24 -41q0 -2 -38 26.5t-99.5 74.5t-140.5 106.5 t-160.5 124t-160.5 124t-140.5 106.5t-98.5 75t-37 27v-2q-2 14 -2 24z" />
<glyph unicode="=" horiz-adv-x="788" d="M10 600v14v13h262h231t208 2l2 -68q-106 -4 -228.5 -7t-226.5 -7q-123 -4 -244 -6q-2 23 -2 43q-2 8 -2 16zM10 825.5v14.5v12h262h231t208 2l2 -68q-106 -4 -228.5 -7t-226.5 -7q-123 -4 -244 -6q-2 23 -2 43q-2 8 -2 16.5z" />
<glyph unicode="&#x3e;" horiz-adv-x="1024" d="M14 1151q4 4 9 12q8 14 18 29q10 18 27 41q246 -147 440 -262q82 -49 161 -96.5t141 -84t100 -58.5l38 -21q-2 -4 -2 -9v-16v-24v2q0 2 -37 -27t-98 -75t-140 -106.5t-161 -124t-161 -124t-140.5 -106.5t-99 -74.5t-37.5 -26.5q-4 4 -9 12l-9 13.5t-9 15.5q-10 18 -25 39 l842 612q-236 129 -424 230q-80 43 -156.5 84t-136 73.5t-77.5 42.5z" />
<glyph unicode="?" horiz-adv-x="983" d="M137 1391q61 61 141 90.5t166 29.5t171 -29.5t152 -87t107.5 -141.5t40.5 -190q0 -66 -16 -124t-43 -118q-6 -12 -24.5 -42.5t-45 -71.5t-58.5 -89.5t-64 -97.5q-76 -113 -170 -250l-62 58l148 221q29 43 58.5 88t56 85t47 72.5t30.5 53.5q63 119 64 223q0 82 -34 150.5 t-89.5 115.5t-126 74t-142.5 27q-70 0 -136 -27t-115 -86zM410 115l106 4l-2 -107h-98z" />
<glyph unicode="@" horiz-adv-x="1431" d="M20 565q0 180 56.5 312.5t147.5 218.5t209 128t241 42q129 0 248.5 -43t214 -126t150.5 -205t56 -280q-2 -113 -32.5 -207t-76.5 -161.5t-99.5 -104.5t-100.5 -37t-79.5 43t-36.5 136q-53 -68 -128 -103t-153 -35q-61 0 -118.5 21.5t-101.5 68t-71 116t-27 165.5v27 q4 100 33 172.5t74 120t102.5 71t118.5 23.5q74 0 145.5 -34t122.5 -99v99t3 46l75 2l8 -661q0 -90 43 -91q31 0 67 40t68.5 102.5t54 138.5t21.5 147q0 137 -47 241t-124.5 172.5t-178 102t-205.5 33.5q-113 0 -219 -37.5t-189 -111.5t-134.5 -184.5t-51.5 -255.5 q0 -154 47.5 -263.5t125 -178t178 -100.5t209.5 -32q47 0 96 6l33 -82q-41 -8 -79 -12t-77 -4q-123 0 -235.5 41t-197.5 123t-135.5 204.5t-50.5 284.5zM393 504q0 -70 19.5 -120t53.5 -83t76 -48t89 -15q49 0 97 17t88 51t66.5 84t32.5 114v74q-6 61 -30.5 108t-60.5 80 t-80 49t-89 16q-47 0 -91 -17t-79.5 -53t-59.5 -90t-30 -128q-2 -10 -2 -19.5v-19.5z" />
<glyph unicode="A" horiz-adv-x="1509" d="M12 45q0 2 28 65.5t74 167t104 235.5t119.5 270.5t119 269.5t102.5 234.5t72.5 166t25.5 62.5h-2l50 2l39 -78q40 -78 104.5 -205t148.5 -290t170 -331q203 -397 465 -903q-18 -18 -35 -30q-14 -12 -28.5 -21.5t-20.5 -9.5q-4 0 -43 74.5t-99 196.5t-137 277.5 t-157 319.5q-188 383 -424 868l-590 -1402q-25 14 -43 26q-16 10 -29.5 20.5t-13.5 14.5zM174 711q0 16 4 16h365h150.5h149t135 1t105.5 1l2 -67q-53 -2 -119.5 -4.5t-140 -3.5t-149.5 -3t-148 -4q-168 -4 -346 -6q-2 12 -4 25q-2 10 -3 22t-1 23z" />
<glyph unicode="B" horiz-adv-x="1175" d="M35 1352q0 74 1 116.5t3 42.5q68 4 116 4.5t89 0.5h121q164 0 285.5 -37t201.5 -96.5t119 -137.5t39 -158q0 -72 -31 -142.5t-90 -129.5q106 -88 158.5 -188.5t52.5 -198.5q0 -82 -36 -156.5t-106.5 -133t-176 -94.5t-242.5 -42q-37 -2 -108 -4t-144.5 -3t-137 -2 t-88.5 -1q-10 0 -11 -1t-1 9q0 23 -1 106.5t-3 202.5t-3 262.5t-3 285.5t-3 272.5t-1 222.5zM117 1430l12 -703q20 -4 38.5 -6t38 -4t44 -3t59.5 -1h46t59 2q127 4 223 35.5t159.5 83t95.5 115t32 130.5q0 70 -35 136.5t-104.5 117.5t-174 82t-241.5 31q-90 -2 -134.5 -4 t-63.5 -4t-27.5 -4t-26.5 -4zM131 653l10 -567q2 0 27 -1t61.5 -2t81.5 -2t88 -1h58.5t50.5 2q125 6 218 37t154.5 78t91 107.5t29.5 125.5q0 82 -45 167t-135 163q-90 -59 -211 -92t-282 -33q-66 0 -108 5t-89 13z" />
<glyph unicode="C" horiz-adv-x="1202" d="M16 731q0 209 54.5 358.5t141.5 243.5t197.5 138.5t225.5 44.5q139 0 264 -59.5t199 -168.5l-51 -67q-53 98 -154.5 151t-222.5 53q-100 0 -201.5 -39.5t-183.5 -125.5t-133.5 -218.5t-51.5 -316.5q0 -158 47.5 -276.5t122 -197.5t170 -119t193.5 -40q68 0 132 18.5 t121.5 56.5t102.5 95t74 133l88 -65q-37 -78 -94.5 -138.5t-129 -102.5t-152.5 -64.5t-165 -22.5q-111 0 -218 42t-190 130t-134.5 226.5t-51.5 330.5z" />
<glyph unicode="D" horiz-adv-x="1228" d="M35 1315q0 80 1 128t3 48q78 12 163 19.5t195 7.5q27 0 54.5 -1t58.5 -1q170 -6 294 -73t206 -172.5t120.5 -238.5t38.5 -272t-37.5 -271.5t-111.5 -238t-181.5 -173t-248.5 -75.5q-29 -2 -61.5 -3t-67.5 -1q-72 0 -144.5 2t-132 5t-97.5 6l-38 3q0 -2 -1 65.5t-3 179.5 t-3 254t-3 286.5t-3 281t-1 234.5zM117 1419l24 -1319q31 -4 96.5 -12t170.5 -8q67 0 151 6q127 8 225.5 67.5t165 152.5t100 210t33.5 240q0 121 -33.5 236.5t-104.5 209.5t-178.5 156.5t-252.5 75.5q-80 6 -154 6q-86 0 -151.5 -6.5t-91.5 -14.5z" />
<glyph unicode="E" horiz-adv-x="1085" d="M10 711q0 16 4 16h303h128h130.5t121 1t100.5 1l2 -67q-106 -4 -240.5 -7.5t-255.5 -7.5q-141 -4 -285 -6q-2 12 -4 25q-2 10 -3 22t-1 23zM70 1518h931l3 -78q-68 -2 -153 -3t-174 -2t-177 -1h-161h-124h-68l25 -1348h829l3 -59l-67 -3q-67 -4 -167 -7t-218 -7 t-220.5 -7t-174 -4t-77.5 -1z" />
<glyph unicode="F" horiz-adv-x="1085" d="M10 711q0 16 4 16h303h128h130.5t121 1t100.5 1l2 -67q-106 -4 -240.5 -7.5t-255.5 -7.5q-141 -4 -285 -6q-2 12 -4 25q-2 10 -3 22t-1 23zM80 2v1516h921l3 -78q-68 -2 -153 -3t-174 -2t-177 -1h-161h-124h-68l25 -1426z" />
<glyph unicode="G" horiz-adv-x="1232" d="M16 731q0 209 54.5 358.5t141.5 243.5t197.5 138.5t225.5 44.5q139 0 264 -59.5t199 -168.5l-51 -67q-53 98 -154.5 151t-222.5 53q-100 0 -201.5 -39.5t-183.5 -125.5t-133.5 -218.5t-51.5 -316.5q0 -158 47.5 -276.5t122 -197.5t170 -119t193.5 -40q68 0 132 18.5 t121.5 56.5t102.5 95t74 133l67 -71q-35 -78 -91 -138.5t-126.5 -102.5t-149.5 -63.5t-161 -21.5q-111 0 -215 42t-187 131t-133.5 227.5t-50.5 332.5zM270 -121q0 4 10.5 8t24.5 9q16 6 37 10q25 -45 66 -82q35 -31 94 -56.5t151 -25.5q123 0 200 36t122 94t62.5 132 t17.5 148v77q0 98 -1 186.5t-3 155t-5 105.5l-2 39l97 4l1 -43t1 -106.5t2 -137.5t2 -136.5t1 -104t1 -39.5q0 -8 -3 -48.5t-17.5 -94.5t-45 -115.5t-85 -113.5t-139.5 -86t-206 -34t-195.5 34t-115.5 73.5t-56.5 74.5t-15.5 37z" />
<glyph unicode="H" horiz-adv-x="1286" d="M16 711q0 16 4 16h457h185.5h178.5t155.5 1t113.5 1l2 -67q-53 -2 -128 -4.5t-161 -3.5t-179 -3t-181 -4q-209 -4 -438 -6q-2 12 -5 25q-2 10 -3 22t-1 23zM72 1337q0 84 1 132.5t3 48.5l76 4l28 -1522q-12 0 -22 2q-10 0 -21.5 1t-21.5 1q-29 0 -29 -6q0 -2 -1 67.5 t-3 184.5t-3 261t-3 295.5t-3 290t-1 240.5zM1075 1296q0 102 1 162t3 60l76 4l29 -1858q-12 0 -23 2q-10 0 -21.5 1t-21.5 1q-29 0 -28 -6q0 -2 -1.5 47t-2.5 134t-2 201t-2 246t-2 269t-2 272.5t-2 253t-1 211.5z" />
<glyph unicode="I" horiz-adv-x="841" d="M14 1493q106 4 234.5 6t240.5 6q131 4 265 8q0 -18 2 -34q0 -14 1 -27.5t1 -19.5q0 -2 -36 -3.5t-96.5 -2.5t-138 -1h-159.5h-163h-149zM16 67.5v20.5q0 2 36 3t96.5 1h138.5t159.5 1t162.5 1h149l2 -67q-106 -4 -234.5 -7.5t-240.5 -7.5q-131 -4 -265 -6q-2 18 -2 35 q-2 14 -2 26.5zM291 1303q0 78 1 124t3 46l76 4l28 -1436q-12 0 -22 2q-10 0 -21.5 1t-21.5 1q-29 0 -29 -6q0 -2 -1 63.5t-3 174t-3 247t-3 279.5t-3 272t-1 228z" />
<glyph unicode="J" horiz-adv-x="1009" d="M25 -111q0 4 10 8.5t24 8.5q16 6 37 10q25 -45 66 -82q35 -31 94 -56.5t152 -25.5q123 0 199.5 36t121.5 94.5t62.5 132t17.5 147.5q0 55 1 141t2 190.5t2 219t1 225.5q2 262 4 559l76 4v-59q0 -58 1 -152t2 -215t1 -247t1 -245.5t2 -214t1 -151.5t0 -55q0 -8 -3 -48 t-17.5 -94.5t-45 -116t-85 -113.5t-139.5 -86t-205 -34q-121 0 -196 34t-116 74t-56 74.5t-15 36.5zM506 1493q106 4 192 6t150 6q72 4 131 8q0 -18 2 -34q0 -14 1 -27.5t1 -19.5q0 -4 -37 -5.5t-101.5 -1.5h-151.5h-185z" />
<glyph unicode="K" horiz-adv-x="1155" d="M25 1337q0 84 1 132.5t3 48.5l75 4l29 -1522q-12 0 -22 2q-10 0 -21.5 1t-21.5 1q-29 0 -29 -6q0 -2 -1 67.5t-3 184.5t-3 261t-3 295.5t-3 290t-1 240.5zM80 543q0 31 6 30h2q2 -2 45 37t110.5 105.5t151.5 151.5t172 173q205 207 465 473q16 -16 29 -26 q10 -10 20.5 -18.5t10.5 -12.5q0 -2 -43 -46t-114 -115.5t-161 -163t-184 -185.5q-221 -221 -502 -504q-2 16 -4 35q-2 16 -3 32.5t-1 33.5zM236 649l63 53q78 -68 168 -145.5t183 -159.5t187.5 -162.5t180.5 -156.5q203 -176 407 -357l-71 -63q-205 180 -406 358 q-86 76 -179 159t-186.5 166t-182.5 162t-164 146zM236 649l63 53q78 -68 168 -145.5t183 -159.5t187.5 -162.5t180.5 -156.5q203 -176 407 -357l-71 -63q-205 180 -406 358q-86 76 -179 159t-186.5 166t-182.5 162t-164 146z" />
<glyph unicode="L" horiz-adv-x="1081" d="M27 425v204v246.5t1 233.5t1 198v141v65h75l27 -1427h96.5h145.5h174h180t166 1t131 1l2 -68q-53 -2 -124 -4t-150.5 -3t-163.5 -3t-164 -4q-188 -4 -391 -6q-2 33 -3 96.5t-2 146.5t-1 182z" />
<glyph unicode="M" horiz-adv-x="1433" d="M16 -2l4 66q3 65 9 171.5t13 241.5t15.5 277.5t15.5 277.5t14 241.5t12 171t7 64.5l74 4l692 -1462q-20 -18 -34 -31q-6 -6 -13.5 -12t-11.5 -10q-6 -6 -10 -8q-2 0 -30 58t-73 155.5t-101 221.5t-114.5 253t-115 253t-100.5 221t-71 156l-28 60l-61 -1368zM662 365 l468 1148l68 -4q2 0 13.5 -76.5t27.5 -202.5t35.5 -288t40 -330t41 -328.5t36 -286.5t24.5 -203l9 -77q-2 0 -15 -2t-30 -4q-20 -4 -43 -6l-188 1657q-2 2 -2 6v2q-119 -307 -211 -547q-41 -102 -79 -199.5t-67.5 -174t-47.5 -123.5l-19 -47z" />
<glyph unicode="N" horiz-adv-x="1282" d="M25 1331q0 84 1 132t3 48l75 5l29 -1516q-12 0 -22 2q-10 0 -21.5 1t-21.5 1q-29 0 -29 -6q0 -2 -1 67.5t-3 184.5t-3 260t-3 293.5t-3 288t-1 239.5zM70 1376q72 66 182 101.5t235 35.5t250 -37.5t226.5 -116.5t165 -202t63.5 -295l8 -1200l-90 2q-2 4 -3 32t-1 74 v106.5v131.5v408v240.5t-2 183.5q-4 158 -57.5 269.5t-139.5 183t-192.5 105.5t-212.5 34q-131 0 -248 -45.5t-182 -131.5z" />
<glyph unicode="O" d="M18 717q0 12 1 25.5t1 27.5q8 190 61.5 329.5t136.5 231.5t186.5 136t211.5 44q119 0 230.5 -49t197.5 -145t137.5 -236.5t51.5 -322.5q-4 -182 -61.5 -323.5t-149.5 -237t-208 -144.5t-232 -49q-109 0 -210.5 43t-180 131t-126 222.5t-47.5 316.5zM104 737 q0 -160 44.5 -280.5t116 -200.5t163.5 -121t188 -41q98 0 193.5 42t170.5 127t120 213t45 300q0 160 -43 281t-115 200.5t-164 119.5t-188 40t-189.5 -40t-167 -120.5t-121 -201.5t-53.5 -283v-35z" />
<glyph unicode="P" horiz-adv-x="1183" d="M35 1323q0 84 1 132t3 48q49 2 95 5t98.5 6.5t114 5.5t142.5 2q160 0 278 -37t195.5 -97.5t115.5 -138.5t38 -159q0 -98 -46 -184.5t-135 -151t-221 -102.5t-304 -38q-90 0 -163 5.5t-116 13.5l12 -639q-12 0 -22 2q-10 0 -21.5 1t-21.5 1q-29 0 -29 -6q0 -2 -1 67.5 t-3 183t-3 259t-3 294t-3 288t-1 239.5zM117 1432l12 -725q39 -6 105.5 -10.5t158.5 -4.5h58.5t62.5 2q127 4 223.5 38t160 86t95 117.5t31.5 135.5q0 74 -35 142.5t-104.5 122t-174 85t-241.5 31.5q-90 -2 -149.5 -4t-99.5 -5t-63.5 -6t-39.5 -5z" />
<glyph unicode="Q" d="M18 717q0 12 1 25.5t1 27.5q8 190 61.5 329.5t136.5 231.5t186.5 136t211.5 44q119 0 230.5 -49t197.5 -145t137.5 -236.5t51.5 -322.5q-4 -182 -61.5 -323.5t-149.5 -237t-208 -144.5t-232 -49q-109 0 -210.5 43t-180 131t-126 222.5t-47.5 316.5zM104 737 q0 -160 44.5 -280.5t116 -200.5t163.5 -121t188 -41q98 0 193.5 42t170.5 127t120 213t45 300q0 160 -43 281t-115 200.5t-164 119.5t-188 40t-189.5 -40t-167 -120.5t-121 -201.5t-53.5 -283v-35zM561 383v172v53q0 -4 25 -4h24.5t24.5 2q12 0 24 2q-4 -53 -9 -126.5 t-5 -157.5q0 -98 10.5 -201t38 -186.5t76.5 -137t129 -53.5q55 0 84 37t43 81t16 81t7 37h15t28 2q16 2 38 4v-29q0 -29 -7 -78t-34.5 -97t-81 -84t-145.5 -36q-70 0 -119 32t-82.5 85t-53 124.5t-30 151.5t-13.5 164t-3 162z" />
<glyph unicode="R" horiz-adv-x="1187" d="M35 1323q0 84 1 132t3 48q49 2 95 5t98.5 6.5t114 5.5t142.5 2q160 0 278 -37t195.5 -97.5t115.5 -138.5t38 -159q0 -98 -46 -184.5t-135 -151t-221 -102.5t-304 -38q-90 0 -163 5.5t-116 13.5l12 -639q-12 0 -22 2q-10 0 -21.5 1t-21.5 1q-29 0 -29 -6q0 -2 -1 67.5 t-3 183t-3 259t-3 294t-3 288t-1 239.5zM117 1432l12 -725q39 -6 105.5 -10.5t158.5 -4.5h58.5t62.5 2q127 4 223.5 38t160 86t95 117.5t31.5 135.5q0 74 -35 142.5t-104.5 122t-174 85t-241.5 31.5q-90 -2 -149.5 -4t-99.5 -5t-63.5 -6t-39.5 -5zM537 645l100 2 q90 -174 175 -341t155 -300q80 -156 153 -295q-18 -18 -35 -30q-14 -12 -28.5 -21.5t-20.5 -9.5q-4 0 -50 89t-116.5 231.5t-158.5 319.5t-174 355z" />
<glyph unicode="S" horiz-adv-x="1150" d="M18 172l37 113q27 -20 91.5 -53t147.5 -65t176 -54.5t179 -22.5q57 0 113.5 14.5t99.5 48t69.5 91t26.5 141.5q0 74 -39.5 118t-106.5 70.5t-150.5 42t-171 32t-171 38t-150.5 61t-106.5 102t-39.5 161.5q0 123 43 217t114.5 157.5t164.5 96t196 32.5q113 0 228.5 -37.5 t219.5 -115.5l-49 -86q-80 78 -179 113.5t-200 35.5q-88 0 -171 -26.5t-146.5 -76.5t-102.5 -123t-39 -163t41 -143t107.5 -85t152.5 -47.5t175.5 -29.5t175.5 -33.5t152.5 -58.5t107.5 -102.5t41 -165.5q0 -104 -34 -174t-90.5 -113t-130 -60.5t-155.5 -17.5 q-92 0 -187.5 17.5t-180 43t-153.5 55.5t-106 52z" />
<glyph unicode="T" horiz-adv-x="1159" d="M14 1493q53 2 127 3t159 3t176 3t177 3q203 4 428 8q0 -18 2 -34q0 -14 1 -27.5t1 -19.5q0 -2 -60 -3.5t-156.5 -2.5t-216.5 -1h-238.5h-224h-173.5zM618 1298q0 80 1.5 127.5t3.5 47.5l75 4l29 -1475h-47q-10 0 -18.5 -1t-14.5 -1h-14l-1 68q-1 69 -3 180.5t-3 253 t-3 286t-3.5 278.5t-1.5 232z" />
<glyph unicode="U" horiz-adv-x="1282" d="M16 1509l90 -2q2 -8 3.5 -69.5t1.5 -153.5v-274v-178.5t2 -157.5q2 -158 56 -269.5t139 -183t190.5 -105.5t214.5 -34q66 0 129 11t119.5 34t103.5 55.5t80 75.5l2 -121q-72 -66 -182.5 -101.5t-235.5 -35.5t-250 38t-226 116.5t-164.5 201.5t-63.5 295zM1083 1513 q12 -2 23 -2q10 -2 20.5 -2h20.5q12 0 21.5 1t9.5 6q0 2 1 -83t3 -225.5t3 -317.5t3 -358.5t3 -350.5t1 -292q0 -102 -1 -160.5t-3 -58.5l-76 -4z" />
<glyph unicode="V" horiz-adv-x="1710" d="M90 1450q23 18 41 31q17 10 29 19l14 11q3 0 32 -56q30 -58 77 -156.5t107.5 -225.5t121.5 -258q145 -309 330 -706l598 1404q23 -16 43 -28q16 -10 29.5 -19.5t13.5 -13.5q0 -2 -29 -65.5t-75 -166t-104 -233.5t-119.5 -268t-120 -267t-103.5 -232.5t-73 -165t-25 -62.5 q-6 0 -15 2q-16 4 -24 4q-4 0 -4 -1t-3 -1h-2v-2q2 -2 -28.5 59.5t-82.5 163.5t-119 233.5t-136 268.5q-164 322 -373 731z" />
<glyph unicode="W" horiz-adv-x="1912" d="M4 1454l41 33q16 12 29.5 21.5t13.5 7.5l28 -62q29 -61 75.5 -159.5t106.5 -225.5t122 -258q145 -309 332 -702l477 1116q23 -16 43 -29q16 -10 29.5 -20.5t13.5 -12.5t-23.5 -53t-60.5 -133t-85 -187.5t-98.5 -215t-97.5 -214t-84 -186.5t-59.5 -132t-20.5 -50 q-6 0 -14 2q-6 0 -13 1t-11 1t-4.5 -1t-2.5 -1h-2q0 -2 -30.5 59.5t-82 163.5t-117 233.5t-134.5 268.5q-162 324 -371 735zM948 471l47 94q41 -92 79 -174t67 -145q33 -74 61 -137l602 1402q23 -16 43 -28q16 -10 29.5 -19.5t13.5 -13.5q0 -2 -28.5 -65.5t-74.5 -166 t-105.5 -233.5t-121 -267t-121 -266t-104.5 -232.5t-72.5 -165t-25.5 -62.5q-6 0 -14 2q-6 0 -13.5 1t-11.5 1q-2 0 -3 -1t-3 -1h-2q0 -2 -19.5 37t-53.5 104.5t-77 152.5t-92 183z" />
<glyph unicode="X" horiz-adv-x="1333" d="M4 1448q14 16 29 31q12 10 23.5 20t19.5 10q2 0 55 -63.5t137 -167.5t191.5 -237.5t218 -272.5t217 -272.5t188.5 -236.5t133 -167l50 -63l-58 -35q-4 -2 -58 59.5t-139 162.5t-192.5 232.5t-220.5 268.5q-262 322 -594 731zM188 39q4 0 48.5 62.5t115 167t159.5 236.5 t181 271q217 324 490 737q23 -16 43 -28q16 -10 29.5 -19.5t13.5 -13.5q0 -2 -43 -64.5t-114 -166t-161 -234.5t-185 -267t-186.5 -267t-163 -233.5t-115.5 -165t-46 -62.5z" />
<glyph unicode="Y" horiz-adv-x="1462" d="M8 1454q18 16 35 29q14 10 25.5 20t13.5 13l30 -65q31 -65 80.5 -170t113 -240.5t128 -277.5t127 -277.5t111.5 -242t78 -171.5l28 -64l-57 -35l-31 63q-31 62 -81 166.5t-113.5 237.5t-130.5 273zM555 -287q4 0 41 77t93 204t129 289.5t147 332.5q174 397 395 904 q23 -16 43 -29q16 -10 29.5 -19.5t13.5 -13.5q0 -2 -35 -78.5t-92 -202.5t-131 -287t-150.5 -329t-150.5 -328.5t-132.5 -286.5t-95 -203t-38.5 -77z" />
<glyph unicode="Z" horiz-adv-x="1214" d="M25 45v43q2 0 45 57.5t112.5 152.5t158.5 215t181 247q217 295 490 672h-43q-43 0 -112 -1t-157 -1h-180h-491q-2 25 -2 43q0 16 -1 28t-1 10h540h197.5t174.5 1t124 1h49v-26v-78l-39 -53t-103.5 -141.5t-147.5 -201t-172 -232t-175 -236.5t-156.5 -212t-118.5 -161 t-61 -82q0 -2 22.5 -3t75 -2t136.5 -1h204h241.5t307.5 2l2 -68q-53 -2 -127.5 -3t-162.5 -3t-181.5 -3t-183.5 -3q-211 -4 -444 -6q-2 25 -2 45z" />
<glyph unicode="[" horiz-adv-x="366" d="M27 292.5v229.5q0 193 1 390.5t1 360.5t1 268.5t1 113.5l276 2l2 -68q-2 0 -32.5 -4t-68.5 -7t-68.5 -5t-33.5 -2l5 -1665q47 4 86 8q35 4 65.5 7t40.5 3h4l2 -88q-10 -2 -20 -2h-51h-134q-37 0 -71 2q-2 31 -3 97.5t-2 157.5t-1 201.5z" />
<glyph unicode="\" horiz-adv-x="770" d="M10 1458q-2 0 12.5 9.5t30.5 21.5q20 12 43 31q182 -416 326 -740q61 -139 119.5 -271t104.5 -235.5t75 -167.5l29 -63l-66 -47q-186 410 -334 731q-63 137 -123.5 268t-108.5 233.5t-78 165.5z" />
<glyph unicode="]" horiz-adv-x="366" d="M12 -164l2 88h4q10 0 41 -3t66 -7q39 -4 86 -8l4 1665q-2 0 -33.5 2t-68.5 5t-68 7t-33 4l2 68l277 -2v-113.5t1 -268.5t1 -360.5v-390.5v-229.5v-201.5t-1 -157.5t-3 -97.5q-35 -2 -72 -2h-133h-51q-10 0 -21 2z" />
<glyph unicode="^" horiz-adv-x="765" d="M8 989l24 39q25 39 62 97.5t79 127t78 127t60.5 97.5t24.5 36l47 3l23 -39q22 -39 58 -97.5t77 -126t76.5 -126t58.5 -98.5l24 -40l-104 -45q-18 37 -39 76q-16 35 -37.5 77t-44.5 87l-119 237q-66 -129 -118 -231q-23 -45 -44.5 -86t-37.5 -74q-20 -37 -39 -74z" />
<glyph unicode="_" horiz-adv-x="999" d="M0 47v14v13h365h150.5h149t135 1t105.5 1l2 -68q-53 -2 -119.5 -4t-140.5 -3t-149.5 -3t-147.5 -4q-168 -4 -346 -6q-2 23 -2 43q-2 8 -2 16z" />
<glyph unicode="`" horiz-adv-x="509" d="M18 1845l58 92l16 -12q17 -12 43.5 -32.5t60 -45t68.5 -51.5l189 -139l-43 -55z" />
<glyph unicode="a" horiz-adv-x="1103" d="M0 588q0 10 1 20.5t1 20.5q6 156 49 268.5t110.5 186t151.5 109.5t174 36q96 0 190.5 -41t168.5 -119t119 -191.5t45 -261.5q0 -145 -47.5 -256.5t-123 -188.5t-172 -116t-194.5 -39q-90 0 -176 34t-151.5 104.5t-105.5 178t-40 255.5zM82 563q0 -117 32.5 -202t86 -140 t123 -82.5t143.5 -27.5q84 0 167 33.5t147.5 99t104.5 161t40 220.5q0 123 -36 217t-94.5 158.5t-133 98.5t-152.5 34q-74 0 -145.5 -31t-130 -92.5t-98.5 -155.5t-50 -223q-2 -18 -3 -34.5t-1 -33.5zM920 1096q0 68 1 108.5t3 40.5l75 4l29 -1255q-12 0 -22 2 q-10 0 -21.5 1t-21.5 1q-29 0 -29 -6q0 -2 -1 55t-3 152.5t-3 215.5t-3 243.5t-3 238.5t-1 199z" />
<glyph unicode="b" horiz-adv-x="1136" d="M12 1331q0 84 1 132t3 48l76 5l29 -1522q-12 0 -23 2q-10 0 -21 1t-22 1l-28 -6l-1 68q-1 70 -3.5 185t-3.5 260.5t-3 295t-3 289t-1 241.5zM35 588q0 10 1 20.5t1 20.5q6 156 49 268.5t110.5 186t151.5 109.5t174 36q96 0 190.5 -41t168 -119t118.5 -191.5t45 -261.5 q0 -145 -47 -256.5t-122.5 -188.5t-172 -116t-194.5 -39q-90 0 -176 34t-151.5 104.5t-105.5 178t-40 255.5zM113 565q0 -117 32.5 -205t88 -146t127 -88t147.5 -30q80 0 158.5 34t140 100.5t99.5 167t38 233.5q0 123 -35 218t-92 159.5t-131 97.5t-149 33q-74 0 -144.5 -31 t-129 -93.5t-98.5 -158.5t-50 -225q-2 -16 -2 -32.5v-33.5z" />
<glyph unicode="c" horiz-adv-x="1099" d="M14 580q0 166 43 286.5t113 200.5t159 118t183 38q119 0 231.5 -58.5t190.5 -171.5l-51 -67q-72 98 -168.5 150t-196.5 52q-78 0 -153.5 -33.5t-135 -104t-96.5 -179.5t-37 -256q0 -119 33 -206t87 -144.5t125 -85t144 -27.5q61 0 124 19.5t118 57.5t99 95.5t73 130.5 l88 -65q-37 -78 -90 -138.5t-117.5 -100.5t-136.5 -60.5t-145 -20.5q-92 0 -179.5 34t-155 104.5t-108.5 178t-41 253.5z" />
<glyph unicode="d" horiz-adv-x="1122" d="M16 582q0 10 1 20.5t1 20.5q6 156 49.5 268.5t111 186t151.5 109.5t174 36q96 0 190 -41t168 -119t119 -191.5t45 -261.5q0 -145 -47 -256.5t-123 -188.5t-172 -116t-195 -39q-90 0 -176 34t-151.5 104.5t-105.5 178t-40 255.5zM104 559q0 -117 34 -205t89.5 -146 t126 -88t146.5 -30q80 0 158.5 34t141 100.5t100.5 167t38 233.5q0 123 -35 218t-92 159.5t-131 97.5t-150 33q-74 0 -145.5 -31t-129.5 -93.5t-98.5 -158.5t-50.5 -225q-2 -16 -2 -33v-33zM934 1325q0 84 1 132t3 48l76 4l28 -1521q-12 0 -22 2q-10 0 -21.5 1t-21.5 1 q-29 0 -29 -6q0 -2 -1 67.5t-3 185t-3 261t-3 295t-3 289t-1 241.5z" />
<glyph unicode="e" horiz-adv-x="1150" d="M14 580q0 166 41 286.5t108.5 200.5t155 118t177.5 38q117 0 227.5 -58.5t187.5 -171.5l-51 -67q-55 104 -146 158.5t-194 54.5q-78 0 -153.5 -34t-136 -102.5t-98.5 -172t-38 -244.5q0 -119 35 -209t91 -151.5t130 -93.5t154 -32q117 0 226.5 69t180.5 216l76 -55 q-37 -78 -90 -138.5t-117.5 -100.5t-136.5 -60.5t-145 -20.5q-92 0 -179.5 34t-155 104.5t-108.5 178t-41 253.5zM72 666q0 16 4 16q240 0 428 2q80 0 155.5 1t135 2t95.5 2t34 3q-4 61 -22.5 126t-41.5 108l51 67q20 -29 40 -72.5t35 -95t24.5 -103.5t9.5 -99l-940 -27 q-2 12 -4 25q-2 10 -3 22t-1 23z" />
<glyph unicode="f" horiz-adv-x="776" d="M0 700.5v14.5v12h262h230.5t207.5 2l2 -67q-106 -4 -228 -7.5t-226 -7.5q-123 -4 -244 -6q-2 23 -2 43q-2 8 -2 16.5zM360 952q0 72 10.5 166t44.5 180t97 146.5t170 66.5l25 -79q-94 -8 -147.5 -63.5t-80 -137.5t-34 -179.5t-7.5 -189.5q0 -25 2 -75t5.5 -114.5 t7.5 -139t8 -148.5q8 -172 22 -377q-12 0 -24 2q-10 0 -24.5 1t-24.5 1q-25 0 -25 -4q-6 233 -10 418q-2 78 -3 152.5t-2 132t-2 92.5t-1 33t-3.5 30.5t-3.5 85.5z" />
<glyph unicode="g" horiz-adv-x="1120" d="M12 590q0 10 1 20.5t1 20.5q6 156 49 268.5t111 186t152 109.5t174 36q96 0 190 -41t168 -119t119 -191.5t45 -261.5q0 -145 -47 -256.5t-123 -188.5t-172 -116t-195 -39q-90 0 -176 34t-151.5 104.5t-105.5 178t-40 255.5zM94 561q0 -119 33 -208t87 -149.5t125 -90 t146 -29.5q80 0 162 36t146.5 108.5t105.5 182t41 255.5q0 119 -34 208t-90 149t-128 91t-147 31q-76 0 -151 -32t-136 -95.5t-103.5 -159.5t-52.5 -225q-2 -18 -3 -36.5t-1 -35.5zM147 -115q0 4 10.5 8.5t24.5 8.5q16 6 37 10q25 -45 66 -82q35 -31 94 -56.5t151 -25.5 q123 0 200 36t122 94.5t62.5 132t17.5 147.5v179v226t1 238t2 213t2 153.5t5 59.5l76 4v-47t1 -123t2 -172t1 -197.5t1 -198t2 -171t1 -120.5t0 -44q0 -8 -3 -48t-17.5 -94.5t-45 -116t-85 -113.5t-139.5 -86t-206 -34t-195.5 34t-115.5 74t-56.5 74.5t-15.5 36.5z" />
<glyph unicode="h" horiz-adv-x="1112" d="M14 1337q0 84 1 132.5t3 48.5l76 4l30 -1522q-12 0 -24 2q-10 0 -21 1t-22 1l-28 -6l-1 68q-1 70 -3 184.5t-3.5 260.5t-3.5 295.5t-3 290t-1 240.5zM37 539q0 178 37 308t100.5 214t147.5 125t180 41q94 0 187 -42t166 -122t118 -195.5t45 -265.5l8 -594h-90 q-4 10 -4 45v88v170v129t-2 140q-4 137 -41 241.5t-96.5 175t-135 107.5t-153.5 37q-72 0 -138.5 -31t-122 -93.5t-93 -156.5t-48.5 -223q-25 -72 -39 -111t-20 -39t-6 52z" />
<glyph unicode="i" horiz-adv-x="290" d="M68 1239h86q2 -84 3 -182.5t3 -201.5t3 -206.5t3 -197.5q4 -223 8 -451q-12 0 -22 2q-10 0 -21.5 1t-21.5 1q-29 0 -29 -6q0 -2 -1 57.5t-2 159.5t-2 230t-3 268.5t-3 275.5t-1 250zM72 1325v82.5t2 19.5v-4q0 -4 2 -4l76 4v2q0 4 2 5q2 -6 2 -19v-31.5t2 -54.5h-86z" />
<glyph unicode="j" horiz-adv-x="358" d="M-672 -111q0 4 10.5 8.5t24.5 8.5q16 6 37 10q25 -45 65 -82q35 -31 94.5 -56.5t151.5 -25.5q123 0 200 36t122 94.5t62.5 132t17.5 147.5v181.5v230t1 241.5t2 218t2 157.5t5 60.5l76 4v-48t1 -124.5t2 -175t1 -202t1 -201.5t2 -174t1 -123t0 -45q0 -8 -3 -48 t-17.5 -94.5t-45 -116t-85 -113.5t-139.5 -86t-206 -34t-195.5 34t-115.5 74t-56.5 74.5t-15.5 36.5zM109 1325v82.5t2 19.5v-4q0 -4 2 -4l75 4v2q0 4 2 5q2 -6 3 -19v-31.5t2 -54.5h-86z" />
<glyph unicode="k" horiz-adv-x="1075" d="M25 1337q0 84 1 132.5t3 48.5l75 4l29 -1522q-12 0 -22 2q-10 0 -21.5 1t-21.5 1q-29 0 -29 -6q0 -2 -1 67.5t-3 184.5t-3 261t-3 295.5t-3 290t-1 240.5zM80 543q0 31 6 30h2q2 -2 32 25t76 73t104 104.5t120 119.5q143 143 321 330q16 -16 29 -27q10 -10 20.5 -18.5 t10.5 -12.5q0 -2 -31 -33.5t-81 -83t-113.5 -117t-131.5 -132.5q-158 -158 -356 -359q-2 16 -4 35q-2 16 -3 32.5t-1 33.5zM229 653q18 10 33 19l22.5 15t10.5 11q0 2 31.5 -24.5t83 -70.5t117 -101.5t135.5 -116.5q160 -141 366 -319l-72 -64z" />
<glyph unicode="l" horiz-adv-x="309" d="M66 1337q0 84 1 132.5t3 48.5l75 4l29 -1522q-12 0 -22 2q-10 0 -21.5 1t-21.5 1q-29 0 -29 -6q0 -2 -1 67.5t-3 184.5t-3 261t-3 295.5t-3 290t-1 240.5z" />
<glyph unicode="m" horiz-adv-x="1368" d="M16 -2l4 54q3 54 7 142.5t10 201t12 230t13.5 230.5t12.5 200t10 141t7 54l74 4l698 -1208l-33 -29q-6 -6 -13 -11t-11 -9q-6 -6 -10 -8q-2 0 -29 43t-69 115.5t-95 167t-110.5 194.5t-112.5 198.5t-102.5 181.5t-80 141.5t-42.5 78.5l-47 -1110zM635 367l481 888l68 -4 q2 0 10 -53t19.5 -140t25.5 -198.5t28.5 -228.5t29 -227.5t24.5 -197.5t17 -140l8 -54q-2 0 -15.5 -2t-30.5 -4q-20 -4 -43 -6l-129 1126q-2 2 -2 7v2q-96 -197 -180 -367q-37 -74 -73.5 -147.5t-70.5 -139t-61.5 -118t-44.5 -82.5z" />
<glyph unicode="n" horiz-adv-x="1134" d="M25 1102q0 68 1 108.5t3 40.5l75 4l29 -1255q-12 0 -22 2q-10 0 -21.5 1t-21.5 1q-29 0 -29 -6q0 -2 -1 55.5t-3 152.5t-3 215t-3 243.5t-3 238.5t-1 199zM47 539q0 178 37 308t100.5 214t147.5 125t180 41q94 0 187.5 -42t166 -122t117.5 -195.5t45 -265.5l8 -594h-90 q-4 10 -4 45v88v170v129t-2 140q-4 137 -41 241.5t-96.5 175t-135 107.5t-153.5 37q-72 0 -138.5 -31t-121.5 -93.5t-93 -156.5t-48 -223q-25 -72 -39.5 -111t-20.5 -39t-6 52z" />
<glyph unicode="o" horiz-adv-x="1089" d="M0 582q0 10 1 20.5t1 20.5q6 156 49 268.5t110.5 186t151.5 109.5t174 36q96 0 190.5 -41t168.5 -119t119 -191.5t45 -261.5q0 -145 -47.5 -256.5t-123 -188.5t-172 -116t-194.5 -39q-90 0 -176 34t-151.5 104.5t-105.5 178t-40 255.5zM84 561q0 -117 34 -202t90 -142 t128 -85t147 -28q82 0 162 32t142.5 94.5t100.5 154.5t38 215q0 133 -35 233.5t-93.5 168t-133 102.5t-152.5 35q-74 0 -146.5 -32t-131 -95.5t-98.5 -159.5t-50 -227q-2 -16 -2 -31.5v-32.5z" />
<glyph unicode="p" horiz-adv-x="1163" d="M18 1053q0 86 1 136t4 50l75 4l29 -1562q-12 0 -23 2q-10 0 -21 1t-22 1l-28 -7l-1 70q-1 72 -3 189.5t-3 268t-3.5 304.5t-3.5 296t-1 247zM41 582q0 10 1 20.5t1 20.5q6 156 49 268.5t110.5 186t151.5 109.5t174 36q96 0 190.5 -41t168.5 -119t119 -191.5t45 -261.5 q0 -145 -47.5 -256.5t-123 -188.5t-172 -116t-194.5 -39q-90 0 -176 34t-151.5 104.5t-105.5 178t-40 255.5zM102 553q0 -119 33 -208t87 -149.5t125 -90t147 -29.5q80 0 161.5 35.5t146 108.5t105.5 182.5t41 254.5q0 119 -33.5 208t-90 149.5t-128 91.5t-147.5 31 t-150.5 -32t-136 -95.5t-104 -159.5t-52.5 -225q-2 -18 -3 -37t-1 -35z" />
<glyph unicode="q" horiz-adv-x="1142" d="M20 582q0 10 1.5 20.5t1.5 20.5q6 156 49 268.5t110.5 186t151.5 109.5t174 36q96 0 190.5 -41t168 -119t118.5 -191.5t45 -261.5q0 -145 -47 -256.5t-123 -188.5t-172 -116t-194 -39q-90 0 -176.5 34t-152 104.5t-105.5 178t-40 255.5zM104 561q0 -117 34 -202 t90.5 -142t128 -85t147.5 -28q82 0 161.5 32t142 94.5t100.5 154.5t38 215q0 133 -34.5 233.5t-93 168t-133.5 102.5t-153 35q-74 0 -146.5 -32t-130.5 -95.5t-98.5 -159.5t-50.5 -227q-2 -16 -2 -31.5v-32.5zM453 383v172v53q0 -4 24 -4h24.5t24.5 2q12 0 25 2 q-4 -53 -9 -126.5t-5 -157.5q0 -98 10 -201t37.5 -186.5t77 -137t129.5 -53.5q55 0 83.5 37t43 81t16.5 81t6 37h15.5t27.5 2t39 4v-29q0 -29 -7 -78t-35 -97t-81 -84t-145 -36q-70 0 -119 32t-83 85t-53.5 124.5t-29.5 151.5t-13 164t-3 162z" />
<glyph unicode="r" horiz-adv-x="686" d="M10 596q0 150 34 265.5t90 195.5t131 121t157 41q57 0 115.5 -20.5t113.5 -63.5l-37 -78q-47 41 -96 59.5t-96 18.5q-150 0 -238 -167t-88 -489q0 -154 7.5 -276.5t7.5 -173.5q0 -10 -1 -15.5t-1 -9.5l-91 -2z" />
<glyph unicode="s" horiz-adv-x="897" d="M20 887q0 92 31 156.5t80 106.5t113.5 60.5t132.5 18.5q106 0 182 -34t135 -110l-71 -65q-43 63 -107.5 93t-132.5 30q-53 0 -102.5 -17.5t-88 -51.5t-62.5 -82t-24 -111q0 -74 49.5 -119t124 -78t160.5 -61.5t161 -70.5t124 -105.5t49 -165.5q0 -57 -27.5 -107.5 t-75.5 -88.5t-113.5 -59.5t-141.5 -21.5q-84 0 -150.5 15.5t-116 37t-81 42t-45.5 32.5l63 78q18 -18 48 -38.5t71 -38t92 -29t115 -11.5q51 0 99 14.5t86 41t61.5 63.5t23.5 80q-2 80 -52 127t-124 80.5t-159 61.5t-157.5 68t-121 100t-48.5 159z" />
<glyph unicode="t" horiz-adv-x="778" d="M2 702.5v20.5q0 2 71.5 3t178 1t228.5 1t222 1l3 -67q-106 -4 -228.5 -7.5t-226.5 -7.5q-123 -4 -244 -6q-2 18 -2 35q-2 14 -2 26.5zM348 1513h47h30.5t16.5 3l1 -62q1 -61 2 -163.5t3 -233.5t2.5 -269.5t1.5 -273.5t1 -244q0 -121 -1 -194.5t-3 -73.5l-76 -4z" />
<glyph unicode="u" horiz-adv-x="1122" d="M18 1221h91q2 -10 3 -45t1 -89v-172v-126.5t2 -139.5q2 -137 40 -242.5t97 -176t134 -106.5t153 -36q70 0 138 31t123.5 93t93.5 156.5t48 223.5q25 70 39 109.5t20 39.5t7 -51q0 -178 -37 -308t-100.5 -214t-148.5 -125t-181 -41q-94 0 -186.5 42t-165 122t-117.5 195.5 t-45 265.5zM922 1229q12 -2 22 -2q10 -2 20.5 -2h20.5q12 0 21.5 1t9.5 5q0 2 1 -54.5t3 -149.5t3 -212t3 -240.5t3 -234.5t1 -195q0 -68 -1 -107.5t-3 -39.5l-76 -4z" />
<glyph unicode="v" horiz-adv-x="1236" d="M12 1157q18 16 35 31q14 10 27.5 20.5t21.5 10.5q2 0 26.5 -48.5t61.5 -126t84 -177t94 -203.5q113 -246 254 -555l478 1116q23 -16 43 -29q16 -10 29.5 -19.5t13.5 -13.5q0 -2 -23.5 -53t-60.5 -133t-85 -187.5t-98.5 -215t-97.5 -214t-84 -186.5t-59.5 -132t-20.5 -50 q-6 0 -14 2q-16 4 -25 4q-4 0 -4 -1t-2 -1h-2v-2q2 -2 -22.5 46t-66.5 130t-95 186.5t-109 214.5z" />
<glyph unicode="w" horiz-adv-x="1693" d="M25 1157q18 16 34 31q14 10 28 20.5t22 10.5q2 0 26.5 -48.5t61 -126t84 -177t94.5 -203.5q113 -246 254 -555l477 1116q23 -16 43 -29q16 -10 29.5 -19.5t13.5 -13.5q0 -2 -23.5 -53t-60.5 -133t-85 -187.5t-98.5 -215t-97.5 -214t-83.5 -186.5t-59 -132t-20.5 -50 q-6 0 -15 2q-16 4 -24 4q-4 0 -4 -1t-3 -1h-2v-2q2 -2 -22.5 46t-66.5 130t-95 186.5t-108 214.5zM825 471l47 94q41 -92 79 -174t67 -145q33 -74 61 -137l477 1116q23 -16 43 -29q16 -10 29.5 -19.5t13.5 -13.5q0 -2 -23.5 -53t-60 -133t-85 -187.5t-98.5 -215t-97 -214 t-84 -186.5t-59.5 -132t-20.5 -50q-6 0 -14 2q-16 4 -25 4q-4 0 -4 -1t-2 -1h-2v-2q2 -2 -17.5 37t-53 104.5t-78 152.5t-93.5 183z" />
<glyph unicode="x" horiz-adv-x="1091" d="M12 1167q18 18 33 31q11 10 23 20l14 11q3 -1 45 -51q43 -52 111.5 -137t155.5 -193.5t177.5 -222t176.5 -223t153.5 -194.5t107.5 -138l40 -52l-58 -34h-1q-6 0 -46 45q-43 49 -112.5 132t-156.5 189.5t-179 218.5q-215 262 -484 598zM88 29q4 0 40 50t93.5 133 t129 190.5t145.5 218.5l393 593q23 -16 43 -28q16 -10 29.5 -19.5t13.5 -13.5q0 -2 -35 -52t-92 -133t-130 -187.5t-149.5 -214t-150.5 -215t-132.5 -187.5t-94 -132t-37.5 -50z" />
<glyph unicode="y" horiz-adv-x="1243" d="M12 1157q18 16 35 31q14 10 27.5 20.5t21.5 10.5q2 0 28 -51.5t64.5 -135.5t88 -190.5t99.5 -218t98 -218t85 -190.5t59 -134l23 -50l-57 -35q-4 -4 -30 44t-67 129t-92 185.5t-104 214.5q-125 258 -279 588zM12 1157q18 16 35 31q14 10 27.5 20.5t21.5 10.5 q2 0 28 -51.5t64.5 -135.5t88 -190.5t99.5 -218t98 -218t85 -190.5t59 -134l23 -50l-57 -35q-4 -4 -30 44t-67 129t-92 185.5t-104 214.5q-125 258 -279 588zM420 -287q4 0 34.5 64.5t79 171t108.5 243t122 277.5q145 334 330 756q23 -16 43 -29q16 -10 29.5 -19.5 t13.5 -13.5q0 -2 -30 -66.5t-78 -170t-109.5 -239.5t-126 -274.5t-127 -274.5t-111.5 -238.5t-80 -169t-33 -64.5z" />
<glyph unicode="z" horiz-adv-x="1044" d="M20 1208q0 16 5 17h438h160.5t141 1t100.5 1h40v-27v-78l-50 -72q-50 -71 -127 -179.5t-168 -236.5t-173 -244t-142.5 -201t-76.5 -105q0 -2 8 -3t37 -2t84 -1h152h207.5t293.5 2l2 -68q-53 -2 -119.5 -3t-139 -3t-148.5 -3t-146 -3q-166 -4 -342 -6v16q0 8 1 17.5 t1 19.5q0 31 -4 35q2 0 34 45t84 118.5t118.5 168t134.5 192.5l365 524h-33q-33 0 -87.5 1.5t-122 2.5t-138.5 1l-381 4l-4 24q-2 10 -3.5 22.5t-1.5 22.5z" />
<glyph unicode="{" horiz-adv-x="526" d="M14 98q0 51 27 103.5t57.5 103.5t57 98.5t26.5 88.5t-33.5 73.5t-123.5 55.5l8 73q80 27 111.5 71t31.5 97q0 55 -24.5 118.5t-54 127t-54.5 123t-25 106.5q0 168 97.5 242t324.5 74q2 0 2 -11.5t2 -23.5q0 -16 2 -35h-12q-6 0 -14 1t-19 1q-33 0 -79 -7t-91 -33.5 t-82.5 -76t-52.5 -131.5q0 -4 -1 -6t-1 -6q0 -37 28 -92t59.5 -118.5t59 -132.5t27.5 -132q0 -53 -26.5 -101.5t-94.5 -84.5q72 -33 102 -73t30 -87q0 -49 -25 -102.5t-55.5 -102.5t-58 -92t-34.5 -74q-2 -10 -3 -18.5t-1 -16.5q0 -47 22.5 -80.5t56.5 -55t74 -34t78 -18.5 t66.5 -7t38.5 -1q2 0 4 -8.5t2 -18.5v-19.5v-13.5q-6 -2 -14 -2h-37q-43 0 -105.5 7.5t-123 34t-104.5 77.5t-46 139z" />
<glyph unicode="|" horiz-adv-x="256" d="M66 1415q0 111 1 174.5t3 63.5l75 4l23 -1999q-10 0 -21 2q-10 0 -20 1t-21 1q-27 0 -26 -6q0 -2 -1 90t-3 243.5t-3 343t-3 388.5t-3 379t-1 315z" />
<glyph unicode="}" horiz-adv-x="526" d="M14 1583q0 18 2 35q0 12 1 23.5t3 11.5q225 0 323.5 -74t98.5 -242q0 -47 -24.5 -106.5t-54 -123t-54 -126.5t-24.5 -119q0 -53 30.5 -97t112.5 -71l8 -73q-90 -23 -125 -56t-35 -73q0 -41 27 -88.5t58.5 -98.5t58 -103t26.5 -104q-4 -88 -48 -139t-103 -77.5t-122.5 -34 t-104.5 -7.5h-37q-8 0 -15 2v13.5v19.5t1 18.5t6 8.5q10 0 38.5 1t65.5 7t78 18.5t74.5 34t55 55t21.5 80.5v16.5t-2 18.5q-6 31 -33.5 74t-58.5 92t-55.5 102.5t-24.5 102.5q0 47 29 87t102 73q-68 37 -95.5 85t-27.5 101q0 63 28 132t59.5 132.5t59.5 118.5t28 92v12 q-14 82 -52.5 131.5t-83.5 76t-91 33.5t-79 7q-10 0 -18 -1t-14 -1h-13z" />
<glyph unicode="~" horiz-adv-x="919" d="M10 610l20 36q19 36 53 78t78 77t91 35t87 -29t78 -63.5t74.5 -63.5t77.5 -29q37 0 75 23.5t67.5 52.5t48.5 53l20 23l51 -51q0 -2 -23.5 -34t-60 -69t-84 -66.5t-96.5 -29.5q-49 2 -90 31.5t-78 63.5t-72.5 61.5t-72.5 27.5t-69.5 -26.5t-59.5 -57.5q-31 -37 -55 -84 l-29 21q-10 8 -20.5 13t-10.5 7z" />
<glyph unicode="&#xa1;" horiz-adv-x="290" d="M68 1405l2 106h98l6 -102zM90 4v326q0 143 1 317t1 342v309h64q2 -84 4 -184t4 -207.5l4 -215t4 -208.5q6 -233 12 -477h-47q-18 0 -33.5 -1t-13.5 -1z" />
<glyph unicode="&#xa2;" horiz-adv-x="989" d="M14 711q0 168 38 289.5t99.5 201.5t141.5 118t164 38q109 0 213 -58.5t182 -171.5l-51 -67q-55 104 -137 158.5t-170 54.5q-72 0 -141.5 -37t-125 -110.5t-89.5 -185.5t-34 -263q0 -117 28 -205t75 -146.5t107.5 -87t125.5 -28.5q109 0 213.5 80t163.5 239l88 -65 q-37 -78 -88 -138.5t-110.5 -100.5t-126 -60.5t-131.5 -20.5q-84 0 -162 34t-138.5 103.5t-97.5 176t-37 252.5zM395 1337q0 84 1 132.5t3 48.5l76 4l29 -1522q-12 0 -23 2q-10 0 -21 1t-22 1q-29 0 -28 -6q0 -2 -1 67.5t-3.5 184.5t-3.5 261t-3 295.5t-3 290t-1 240.5z" />
<glyph unicode="&#xa3;" horiz-adv-x="1093" d="M18 700.5v14.5v12h205h189.5t189.5 2l2 -67q-106 -4 -209.5 -7.5t-187.5 -7.5q-98 -4 -184 -6q-2 23 -3 43q-2 8 -2 16.5zM23 88q49 4 86.5 21.5t68.5 53.5t54.5 91t39.5 135l56 -96q-41 -145 -105.5 -213t-175.5 -72zM219 733q0 172 35 315.5t99.5 246t156.5 159.5 t207 57q125 0 262 -65l-39 -88q-115 57 -217 57q-98 0 -177 -51t-135.5 -141t-86 -213t-29.5 -267q0 -121 28.5 -237.5t84 -209.5t136.5 -150.5t187 -57.5q92 0 201 51l39 -82q-66 -29 -128.5 -41t-119.5 -12q-117 0 -210 51t-158.5 146.5t-100.5 230.5t-35 301z" />
<glyph unicode="&#xa4;" horiz-adv-x="1349" d="M4 1448q14 16 29 31q12 10 23.5 20t19.5 10q4 0 77.5 -90t188.5 -231l-47 -101q-63 78 -116.5 144.5t-92.5 114.5q-45 55 -82 102zM188 39q2 0 19.5 22.5t46.5 64.5t67.5 99.5t86.5 124.5l71 -41q-49 -70 -89 -128t-69.5 -100t-47 -65.5t-19.5 -23.5zM201 782 q0 10 1 20.5t1 20.5q6 156 49 268.5t110.5 186.5t151.5 109.5t174 35.5q96 0 190.5 -41t168 -118.5t118.5 -191.5t45 -261q0 -145 -47 -257t-122.5 -188.5t-172 -115.5t-194.5 -39q-90 0 -176 34t-151.5 104.5t-105.5 178t-40 254.5zM285 762q0 -117 33.5 -202t90 -142.5 t128 -85t147.5 -27.5q82 0 162 32t142.5 94.5t100 154.5t37.5 215q0 133 -34.5 233.5t-93 168t-133 102t-152.5 34.5q-74 0 -146.5 -31.5t-131 -95t-98.5 -160t-50 -227.5q-2 -16 -2 -31.5v-31.5zM920 324l86 34q57 -72 105 -133t83 -104q39 -53 72 -92l-58 -35 q-2 -2 -24.5 21.5t-60.5 67.5t-90 105.5t-113 135.5zM1010 1253q39 59 70.5 106.5t54.5 82.5q27 39 47 71q23 -16 43 -28q16 -10 29.5 -19.5t13.5 -13.5q0 -2 -52.5 -79t-138.5 -199z" />
<glyph unicode="&#xa5;" horiz-adv-x="1236" d="M12 1456q18 16 35 31q14 10 27.5 20.5t21.5 10.5q2 0 26.5 -48.5t61.5 -126t84 -177t94 -203.5q113 -246 254 -555l478 1116q23 -16 43 -29q16 -10 29.5 -19.5t13.5 -13.5q0 -2 -23.5 -53t-60.5 -133t-85 -187.5t-98.5 -215t-97.5 -214t-84 -186.5t-59.5 -132t-20.5 -50 q-6 0 -14 2q-16 4 -25 4q-4 0 -4 -1t-2 -1h-2v-2q2 -2 -22.5 46t-66.5 130t-95 186.5t-109 214.5zM344 352v15v12h201h187.5t189.5 2l2 -68q-106 -4 -209 -7t-185 -7q-96 -4 -182 -6q-2 23 -2 43q-2 8 -2 16zM346 231q106 4 208.5 6.5t184.5 6.5q96 4 183 8q0 -23 2 -43 q0 -16 1 -30.5t1 -12.5h-201q-86 0 -187.5 -1t-189.5 -1zM580 0v14q0 23 3 96.5t13 239.5l61 29q6 -143 10.5 -220t6.5 -112l2 -47q-12 0 -23 2q-10 0 -21 1t-22 1q-12 0 -21 -1t-7 -5q-2 0 -2 2z" />
<glyph unicode="&#xa6;" horiz-adv-x="264" d="M66 1436q0 100 1 158.5t3 58.5l75 4q2 -123 5 -264q2 -121 3 -275.5t3 -324.5l-86 4q-2 184 -3 351t-1 288zM72 557l86 -2q2 -174 4 -336t4 -287q2 -145 2 -274q-10 0 -21 2q-10 0 -20 1t-21 1q-27 0 -26 -6q0 -2 -1 72.5t-2 200.5t-2 289t-3 339z" />
<glyph unicode="&#xa7;" horiz-adv-x="854" d="M10 -203q0 4 7.5 20.5t15.5 34t15 33t7 19.5v2q0 -4 22.5 -30t66.5 -55.5t112 -54t158 -24.5q51 0 99 16.5t86 44t60.5 65.5t22.5 81q-2 59 -31.5 99t-76 69.5t-105.5 52.5t-120.5 45.5t-120 48t-104.5 61t-73.5 86t-27.5 121.5q0 51 11 105.5t44 106t89 95.5t148 74 l103 -79q-109 -12 -170.5 -44t-91 -70t-36.5 -78t-7 -69v-28q0 -80 50 -128t124.5 -83t163 -64.5t163 -70.5t124.5 -102.5t50 -157.5q0 -59 -29.5 -109.5t-80.5 -87.5t-120 -58.5t-144 -21.5q-96 0 -170 20.5t-127 47.5q-61 29 -107 67zM20 1178q0 90 28 154.5t74 104.5 t105.5 58t124.5 18q66 0 130.5 -17t119.5 -48t96 -74t58 -94q0 -4 -15.5 -10t-33.5 -15q-23 -8 -50 -18q-37 98 -115.5 145.5t-164.5 47.5q-53 0 -104.5 -17.5t-91.5 -51.5t-64.5 -82t-24.5 -112q0 -74 51.5 -120t129 -80.5t167.5 -65.5t168 -73t129 -103t51 -160 q0 -70 -50 -124t-118.5 -95t-142.5 -68.5t-123 -44.5l-78 66q41 10 110 28.5t134.5 50.5t113.5 80t48 120q-4 80 -54 128t-124 80.5t-159 60t-156.5 67.5t-120 101.5t-48.5 162.5z" />
<glyph unicode="&#xa8;" horiz-adv-x="536" d="M27 1782l98 2l-2 -103l-92 2zM334 1782l98 2l-2 -103l-92 2z" />
<glyph unicode="&#xa9;" horiz-adv-x="1318" d="M18 573v29t2 31q10 156 63.5 268.5t135.5 186t182.5 109.5t206.5 36q117 0 228.5 -41t199.5 -121t142.5 -194.5t54.5 -262.5q0 -150 -57.5 -265.5t-149.5 -194t-208 -119.5t-234 -41q-109 0 -210.5 34.5t-180 106.5t-127 181.5t-48.5 256.5zM102 578q0 -127 43 -221.5 t113 -157t160 -93t186 -30.5q100 0 197.5 33.5t174.5 101.5t124 169t47 236q0 125 -46 221.5t-121 162t-170 99.5t-194 34q-92 0 -179 -30t-157.5 -91.5t-118 -154.5t-57.5 -222q-2 -16 -2 -29.5v-27.5zM270 586q0 102 30 177t78 124t109.5 72.5t126.5 23.5q84 0 163 -37 t132 -106l-57 -58q-47 59 -108.5 88t-125.5 29q-51 0 -100 -19.5t-88 -58.5t-62.5 -96t-23.5 -133q0 -66 24.5 -118t65.5 -88t93.5 -55.5t105.5 -19.5q76 0 144.5 40t103.5 126l65 -49q-51 -98 -144 -148.5t-196 -50.5q-66 0 -126 21.5t-106 65.5t-75 111t-29 159z" />
<glyph unicode="&#xaa;" horiz-adv-x="432" d="M20 1176v18q6 111 58.5 162t118.5 51q33 0 66.5 -14.5t59 -42t42 -68.5t16.5 -92t-16.5 -91t-44 -66.5t-62.5 -41t-70 -14.5q-66 0 -117 48t-51 151zM72 1171q0 -70 35.5 -103.5t82.5 -33.5q49 0 95.5 41t46.5 119q0 72 -41 112t-90 40q-45 0 -82 -37t-45 -115 q-2 -8 -2 -23zM328 1380v25q0 6 2 8l47 2l10 -448h-14q-6 0 -12.5 1t-12.5 1q-12 0 -12 -2t-1 48t-3 117.5t-3 138t-1 109.5z" />
<glyph unicode="&#xab;" horiz-adv-x="1327" d="M8 655q0 84 51 174q14 27 51 59t86.5 65.5t105.5 67.5t114 64q133 72 293 148q14 -23 26 -41q4 -8 9.5 -15.5t9.5 -13.5q4 -8 8 -12l-37 -15q-37 -16 -95.5 -42.5t-129 -60.5t-137 -69.5t-121 -71.5t-78.5 -65q-59 -72 -64 -155q0 -78 64 -170q16 -25 51 -56.5t79 -65.5 t96 -70t104 -68q121 -78 262 -162q-16 -20 -27 -39l-24 -41q0 -2 -40 23.5t-101.5 67.5t-136.5 95.5t-144.5 106.5t-125 100t-79.5 76q-37 45 -53.5 91t-16.5 95zM459 655q0 84 51 174q14 27 51 59t86 65.5t105.5 67.5t113.5 64q133 72 293 148q14 -23 27 -41q4 -8 9 -15.5 l9 -13.5q4 -8 8 -12l-36 -15q-37 -16 -95.5 -42.5t-129 -60.5t-137 -69.5t-121 -71.5t-79.5 -65q-59 -72 -63 -155q0 -78 63 -170q16 -25 51 -56.5t79 -65.5t96.5 -70t103.5 -68q121 -78 262 -162q-16 -20 -26 -39l-25 -41q0 -2 -40 23.5t-101.5 67.5t-136 95.5t-144 106.5 t-125 100t-80.5 76q-37 45 -53 91t-16 95z" />
<glyph unicode="&#xac;" horiz-adv-x="972" d="M18 793q6 0 7 28q0 10 -1 21.5t-1 21.5q-2 10 -3 23q127 -2 271 -2q123 0 281.5 -1t328.5 -1q0 -92 1 -161t1 -118q0 -57 2 -100h-12h-14.5t-16.5 2q-20 0 -43 2l12 303q-172 -2 -321.5 -5t-260 -6t-173 -5t-58.5 -2z" />
<glyph unicode="&#xad;" horiz-adv-x="606" d="M0 700.5v14.5v12h170h167t179 2l2 -67q-106 -4 -199.5 -7.5t-162.5 -7.5q-82 -4 -152 -6q-2 23 -2 43q-2 8 -2 16.5z" />
<glyph unicode="&#xae;" horiz-adv-x="1318" d="M18 573v29t2 31q10 156 63.5 268.5t135.5 186t182.5 109.5t206.5 36q117 0 228.5 -41t199.5 -121t142.5 -194.5t54.5 -262.5q0 -150 -57.5 -265.5t-149.5 -194t-208 -119.5t-234 -41q-109 0 -210.5 34.5t-180 106.5t-127 181.5t-48.5 256.5zM102 578q0 -127 43 -221.5 t113 -157t160 -93t186 -30.5q100 0 197.5 33.5t174.5 101.5t124 169t47 236q0 125 -46 221.5t-121 162t-170 99.5t-194 34q-92 0 -179 -30t-157.5 -91.5t-118 -154.5t-57.5 -222q-2 -16 -2 -29.5v-27.5zM397 866q0 53 1 85t3 32l66 2l16 -735h-20q-10 0 -19.5 1t-17.5 1 q-20 0 -20 -2t-1.5 64.5t-3.5 163.5t-3 203.5t-1 184.5zM455 967q8 2 18 5t28.5 6t48.5 5t79 2q74 0 128 -17.5t90 -46t53.5 -65.5t17.5 -76q0 -47 -23 -89t-66 -73.5t-107.5 -50t-148.5 -18.5q-41 0 -68.5 4t-43.5 8l2 68q16 -4 42.5 -6t76.5 -2q133 0 197.5 40.5 t64.5 108.5q0 61 -58.5 107.5t-177.5 46.5q-51 0 -78.5 -3t-41 -7.5t-18.5 -8.5t-11 -6zM641 563l82 15q41 -86 70.5 -142.5t48.5 -91.5q23 -41 32 -65q-20 -8 -36 -15q-33 -14 -43 -14q-4 0 -38 71.5t-116 241.5z" />
<glyph unicode="&#xaf;" horiz-adv-x="593" d="M20 1759v13h357h149l2 -68q-2 0 -24.5 -1t-57 -3t-79.5 -3t-93 -3l-249 -8q-2 23 -2 43q-2 8 -2.5 16t-0.5 14z" />
<glyph unicode="&#xb0;" horiz-adv-x="499" d="M25 1184v16q4 121 63 178.5t131 57.5q39 0 76 -15.5t66.5 -46.5t48 -76t18.5 -102t-18.5 -102t-49 -76t-69.5 -46.5t-78 -15.5q-37 0 -70.5 13.5t-59.5 42t-42 70.5t-16 102zM100 1182q0 -66 35 -99.5t78 -33.5q47 0 90 39.5t43 119.5q0 66 -36 100.5t-83 34.5 q-43 0 -82 -34.5t-43 -106.5q0 -6 -1 -11t-1 -9z" />
<glyph unicode="&#xb1;" horiz-adv-x="786" d="M8 249.5v14.5v12h262h231t208 3l2 -68q-106 -4 -228.5 -7t-226.5 -7q-123 -4 -244 -7q-2 23 -2 43q-2 8 -2 16.5zM8 761.5v14.5v12h262h231t208 3l2 -68q-106 -4 -228.5 -7t-226.5 -7q-123 -4 -244 -7q-2 23 -2 43q-2 8 -2 16.5zM315 344v2v23.5t1 67.5t2 131t2.5 218.5 t3.5 327.5h65q2 -145 5 -253.5t5 -189.5t4.5 -136.5t2.5 -92.5q2 -84 4 -96z" />
<glyph unicode="&#xb2;" horiz-adv-x="368" d="M12 977v55l236 318q14 20 14 43q0 27 -21.5 44t-52.5 17q-25 0 -51 -13.5t-49 -45.5l-35 30q27 47 63 67.5t72 20.5q49 0 88 -32.5t39 -81.5q0 -27 -27.5 -76t-65.5 -103.5t-78 -106.5t-62 -85h107.5t125.5 4l2 -51q-49 -2 -103 -3t-99 -1h-103z" />
<glyph unicode="&#xb3;" horiz-adv-x="352" d="M16 985l4 53q14 -2 26.5 -2h25.5q104 0 147 19.5t43 46.5q0 18 -16.5 34.5t-44 30t-63.5 21.5t-77 8v51q90 18 133.5 57t43.5 76q0 33 -32 55.5t-97 22.5q-18 0 -40 -2t-44 -6l-2 55q20 2 37.5 3t33.5 1q109 0 159 -36.5t50 -86.5q0 -47 -43 -91t-127 -64 q92 -8 140.5 -45t48.5 -80q0 -47 -59.5 -86t-182.5 -39q-16 0 -31.5 1t-32.5 3z" />
<glyph unicode="&#xb4;" horiz-adv-x="503" d="M18 1657l189 139q35 27 68.5 51.5t60 45t42.5 32.5l17 12l58 -92l-392 -243z" />
<glyph unicode="&#xb5;" horiz-adv-x="1112" d="M6 1229h49q18 0 32.5 1t12.5 1v-17q0 -25 1 -81t2 -133.5t3.5 -168t4.5 -182.5q2 -137 39.5 -242.5t98 -176t135.5 -106.5t153 -36q72 0 140 31t123.5 93t93.5 156.5t48 223.5q25 70 39 109.5t20 39.5t7 -51q0 -178 -37 -307t-100.5 -214t-148.5 -125t-179 -40 q-123 0 -240 68.5t-190 201.5q0 -102 1 -194t1 -170q0 -111 -1 -176.5t-3 -65.5l-76 -4zM922 1229q12 -2 22 -2q10 -2 20.5 -2h20.5q12 0 21.5 1t9.5 5q0 2 1 -54.5t3 -149.5t3 -212t3 -240.5t3 -234.5t1 -195q0 -68 -1 -107.5t-3 -39.5l-76 -4z" />
<glyph unicode="&#xb6;" horiz-adv-x="1210" d="M16 1092q0 80 36 156.5t110 136t185.5 95.5t262.5 36q100 0 173 -5.5t124 -11.5t82 -12t47 -8l-2 -84q-14 2 -30.5 8t-43 13t-68.5 13.5t-108 10.5v-152v-273.5t-2 -322.5q90 2 152.5 8.5t91.5 12.5l2 -74q-31 -6 -96.5 -13.5t-151.5 -11.5q-2 -125 -3 -238.5t-2 -199.5 t-2 -136t-1 -48q0 4 -9 5t-22 1q-10 0 -20 -1t-21 -1q-10 -2 -22 -2l12 618q-166 0 -292 40t-211 107.5t-128 153.5t-43 179zM985 -6l29 1522l76 -5q2 0 3 -48t1 -132q0 -102 -1 -241.5t-3.5 -289t-3.5 -295t-3 -261t-3 -185t-1 -67.5q0 4 -9 5t-21 1q-10 0 -20.5 -1 t-20.5 -1q-10 -2 -23 -2z" />
<glyph unicode="&#xb7;" horiz-adv-x="231" d="M43 739l121 4l-2 -127l-113 2z" />
<glyph unicode="&#xb8;" horiz-adv-x="421" d="M39 51q0 -6 16 -6h15.5t17.5 2t18 4l9 -123q10 0 22 2q10 2 23.5 3t29.5 1q27 0 56.5 -5t54.5 -18t41 -39t16 -67q0 -47 -27.5 -75.5t-67.5 -44t-85 -19.5t-80 -4h-41q-8 0 -16 2v84q66 2 119 10q45 6 83 16.5t38 26.5q0 12 -12.5 21.5t-31 13.5t-40 6t-41.5 2 q-23 0 -43.5 -1t-36.5 -3q-18 -2 -35 -4v113v70.5t-2 31.5z" />
<glyph unicode="&#xb9;" horiz-adv-x="344" d="M18 1430q-2 0 15.5 11t40.5 27q25 16 57 39l53 4l13 -501q-18 -6 -31 -13q-10 -4 -19.5 -9t-9.5 -7t-1 51t-1 129t-1 155t-1 130l-76 -51zM27 1024h75h82t103 2v-49q-131 -2 -195 -6q-37 -2 -59 -4z" />
<glyph unicode="&#xba;" horiz-adv-x="438" d="M20 1077v359q0 43 34 57t71 14h147q14 0 30.5 -3t30 -13t23 -31.5t11.5 -58.5q2 -53 4 -117.5t2 -124.5q0 -100 -20.5 -138t-49.5 -38q-43 0 -102.5 -1t-106.5 -1q-31 0 -52.5 28.5t-21.5 67.5zM70 1384q0 -47 2 -109.5t2 -117.5v-35q0 -35 11 -60.5t40 -25.5h149 q31 0 38 27t7 49v16l-4 252q0 31 -6 46.5t-20.5 23.5t-38 9t-60.5 1q-47 0 -83.5 -13.5t-36.5 -62.5z" />
<glyph unicode="&#xbb;" horiz-adv-x="1314" d="M6 1151q4 4 8 12q8 14 19 29q10 18 26 41q160 -76 293 -148q57 -31 113.5 -64.5t106 -67t85.5 -65.5t52 -59q51 -90 51 -174q0 -98 -70 -186q-25 -29 -80 -76t-124.5 -100t-144.5 -106.5t-136.5 -95.5t-101.5 -67.5t-40 -23.5q-4 4 -8 12l-9 13.5t-9 15.5q-10 18 -25 39 q141 84 262 162q51 33 102.5 68.5t96.5 69.5t79 65.5t52 56.5q61 88 62 170q0 82 -62 155q-25 29 -79 65t-120.5 71.5t-137 69.5t-129 60.5t-95.5 42.5zM457 1151q4 4 8 12q8 14 18 29q10 18 27 41q160 -76 293 -148q57 -31 113.5 -64.5t105.5 -67t85 -65.5t52 -59 q51 -90 51 -174q0 -98 -69 -186q-25 -29 -80 -76t-125 -100t-144.5 -106.5t-136 -95.5t-101.5 -67.5t-40 -23.5q-4 4 -8 12l-9 13.5t-10 15.5q-10 18 -24 39q141 84 262 162q51 33 102.5 68.5t96.5 69.5t78.5 65.5t52.5 56.5q61 88 61 170t-61 155q-25 29 -79 65t-121 71.5 t-137.5 69.5t-129 60.5t-94.5 42.5z" />
<glyph unicode="&#xbc;" horiz-adv-x="1323" d="M29 1370q-2 0 21.5 17.5t51.5 39.5q33 25 76 58l82 6l23 -780l-50 -17q-18 -6 -32.5 -11t-14.5 -7t0 36t-1 100t-1 142t-1 160t-1 153.5v125.5l-100 -76zM41 731h106q49 0 115 1t139 3v-67q-90 -2 -155.5 -4t-108.5 -7l-86 -6zM254 43l328 737q143 324 325 740 q23 -18 43 -31q8 -6 16.5 -12.5t14.5 -10.5q8 -6 12 -8q-2 0 -31.5 -63.5t-76.5 -166t-107.5 -233.5t-124.5 -268q-147 -322 -334 -731zM659 434l424 455l7 -4l55 4l10 -410h78v-67h-78l14 -363h-51h-33.5t-15.5 -4v51q0 25 1 57.5t1 73.5v86t-2 93q-82 -2 -154.5 -2.5 t-128.5 -2.5q-66 -2 -120 -2q-2 4 -4 13q-2 4 -2.5 11t-0.5 11zM807 469q25 0 69 1t87 3q51 2 106 6q-2 18 -2 35.5v34.5q0 66 3 121t3 108q-2 0 -21.5 -22.5t-48 -57t-62.5 -74.5t-63.5 -75t-49 -57.5t-21.5 -22.5z" />
<glyph unicode="&#xbd;" horiz-adv-x="1335" d="M29 1370q-2 0 21.5 17.5t51.5 39.5q33 25 76 58l82 6l23 -780l-50 -17q-18 -6 -32.5 -11t-14.5 -7t0 36t-1 100t-1 142t-1 160t-1 153.5v125.5l-100 -76zM41 731h106q49 0 115 1t139 3v-67q-90 -2 -155.5 -4t-108.5 -7l-86 -6zM254 43l328 737q143 324 325 740 q23 -18 43 -31q8 -6 16.5 -12.5t14.5 -10.5q8 -6 12 -8q-2 0 -31.5 -63.5t-76.5 -166t-107.5 -233.5t-124.5 -268q-147 -322 -334 -731zM776 29q78 2 160 6q70 4 154 5t161 5l-4 68q-106 -4 -196 -4h-166q29 41 67.5 97t80.5 119.5t86 127t83 118.5q45 63 45 125 q0 39 -16.5 71t-44 55.5t-63.5 36.5t-74 13q-57 0 -112.5 -31.5t-96.5 -103.5l55 -49q35 51 77 72.5t79 21.5q47 0 80.5 -28.5t33.5 -69.5q-2 -14 -6 -30.5t-16 -32.5l-367 -508v-84z" />
<glyph unicode="&#xbe;" horiz-adv-x="1323" d="M23 668l10 77q23 -2 42 -2h38q160 0 227.5 31t67.5 72q0 27 -24 53.5t-64.5 48t-95 34.5t-115.5 13h-17v78q139 29 207 91.5t68 121.5q0 51 -50.5 88t-152.5 37q-29 0 -60.5 -3t-66.5 -11l-4 82q61 6 112 6q166 0 245 -57.5t79 -133.5q0 -72 -67.5 -141.5t-196.5 -101.5 q143 -10 218 -68.5t75 -126.5q0 -37 -22.5 -70.5t-70 -61.5t-119 -44t-167.5 -16h-46.5t-49.5 4zM254 43l328 737q143 324 325 740q23 -18 43 -31q8 -6 16.5 -12.5t14.5 -10.5q8 -6 12 -8q-2 0 -31.5 -63.5t-76.5 -166t-107.5 -233.5t-124.5 -268q-147 -322 -334 -731z M659 434l424 455l7 -4l55 4l10 -410h78v-67h-78l14 -363h-51h-33.5t-15.5 -4v51q0 25 1 57.5t1 73.5v86t-2 93q-82 -2 -154.5 -2.5t-128.5 -2.5q-66 -2 -120 -2q-2 4 -4 13q-2 4 -2.5 11t-0.5 11zM807 469q25 0 69 1t87 3q51 2 106 6q-2 18 -2 35.5v34.5q0 66 3 121t3 108 q-2 0 -21.5 -22.5t-48 -57t-62.5 -74.5t-63.5 -75t-49 -57.5t-21.5 -22.5z" />
<glyph unicode="&#xbf;" horiz-adv-x="829" d="M4 455q0 66 16.5 124t42.5 117q6 12 24.5 43t45.5 72t58.5 89t64.5 97q76 113 170 250l61 -57q-82 -119 -149 -221q-29 -43 -58.5 -88t-55 -86t-46 -74t-31.5 -51q-35 -59 -49 -115.5t-14 -108.5q0 -84 34 -151.5t89 -114.5t124.5 -73.5t141.5 -26.5t137.5 26.5 t116.5 86.5l55 -66q-61 -61 -141 -91t-166 -30q-88 0 -172 30t-150.5 87t-107.5 140t-41 192zM403 1399l3 106h98l6 -102z" />
<glyph unicode="&#xc0;" horiz-adv-x="1523" d="M12 45q0 2 28 65.5t74 167t104 235.5t119.5 270.5t119 269.5t102.5 234.5t72.5 166t25.5 62.5h-2l50 2l39 -78q40 -78 104.5 -205t148.5 -290t170 -331q203 -397 465 -903q-18 -18 -35 -30q-14 -12 -28.5 -21.5t-20.5 -9.5q-4 0 -43 74.5t-99 196.5t-137 277.5 t-157 319.5q-188 383 -424 868l-590 -1402q-25 14 -43 26q-16 10 -29.5 20.5t-13.5 14.5zM174 711q0 16 4 16h365h150.5h149t135 1t105.5 1l2 -67q-53 -2 -119.5 -4.5t-140 -3.5t-149.5 -3t-148 -4q-168 -4 -346 -6q-2 12 -4 25q-2 10 -3 22t-1 23zM469 1845l57 92l16 -12 q17 -12 43.5 -32.5t60.5 -45t69 -51.5l188 -139l-43 -55z" />
<glyph unicode="&#xc1;" horiz-adv-x="1523" d="M12 45q0 2 28 65.5t74 167t104 235.5t119.5 270.5t119 269.5t102.5 234.5t72.5 166t25.5 62.5h-2l50 2l39 -78q40 -78 104.5 -205t148.5 -290t170 -331q203 -397 465 -903q-18 -18 -35 -30q-14 -12 -28.5 -21.5t-20.5 -9.5q-4 0 -43 74.5t-99 196.5t-137 277.5 t-157 319.5q-188 383 -424 868l-590 -1402q-25 14 -43 26q-16 10 -29.5 20.5t-13.5 14.5zM174 711q0 16 4 16h365h150.5h149t135 1t105.5 1l2 -67q-53 -2 -119.5 -4.5t-140 -3.5t-149.5 -3t-148 -4q-168 -4 -346 -6q-2 12 -4 25q-2 10 -3 22t-1 23zM469 1657l188 139 q35 27 69 51.5t60.5 45t43.5 32.5l16 12l57 -92l-391 -243z" />
<glyph unicode="&#xc2;" horiz-adv-x="1523" d="M12 45q0 2 28 65.5t74 167t104 235.5t119.5 270.5t119 269.5t102.5 234.5t72.5 166t25.5 62.5h-2l50 2l39 -78q40 -78 104.5 -205t148.5 -290t170 -331q203 -397 465 -903q-18 -18 -35 -30q-14 -12 -28.5 -21.5t-20.5 -9.5q-4 0 -43 74.5t-99 196.5t-137 277.5 t-157 319.5q-188 383 -424 868l-590 -1402q-25 14 -43 26q-16 10 -29.5 20.5t-13.5 14.5zM174 711q0 16 4 16h365h150.5h149t135 1t105.5 1l2 -67q-53 -2 -119.5 -4.5t-140 -3.5t-149.5 -3t-148 -4q-168 -4 -346 -6q-2 12 -4 25q-2 10 -3 22t-1 23zM410 1655l18 21 q18 22 46 54.5t59.5 70.5t59.5 71t46 54l18 20h21q10 0 19.5 1t15.5 1q4 0 22.5 -21.5t43 -54.5t53 -70t53 -69.5t40 -53t17.5 -18.5l-76 -53q-2 2 -28.5 43t-61.5 90q-39 57 -88 129l-217 -268z" />
<glyph unicode="&#xc3;" horiz-adv-x="1523" d="M12 45q0 2 28 65.5t74 167t104 235.5t119.5 270.5t119 269.5t102.5 234.5t72.5 166t25.5 62.5h-2l50 2l39 -78q40 -78 104.5 -205t148.5 -290t170 -331q203 -397 465 -903q-18 -18 -35 -30q-14 -12 -28.5 -21.5t-20.5 -9.5q-4 0 -43 74.5t-99 196.5t-137 277.5 t-157 319.5q-188 383 -424 868l-590 -1402q-25 14 -43 26q-16 10 -29.5 20.5t-13.5 14.5zM174 711q0 16 4 16h365h150.5h149t135 1t105.5 1l2 -67q-53 -2 -119.5 -4.5t-140 -3.5t-149.5 -3t-148 -4q-168 -4 -346 -6q-2 12 -4 25q-2 10 -3 22t-1 23zM377 1700q-2 2 15.5 34.5 t47 70.5t64.5 69t67 31q37 0 69 -29t59.5 -63.5t50 -63.5t45.5 -29q16 0 43.5 27t52.5 59q29 37 61 86l52 -51q-37 -61 -74 -110q-31 -41 -67 -75t-64 -34q-35 0 -68 28.5t-62.5 63.5t-56 63.5t-47.5 28.5q-23 0 -45 -23.5t-40.5 -51t-31 -51t-12.5 -21.5l-28 20 q-10 8 -20.5 13.5t-10.5 7.5z" />
<glyph unicode="&#xc4;" horiz-adv-x="1523" d="M12 45q0 2 28 65.5t74 167t104 235.5t119.5 270.5t119 269.5t102.5 234.5t72.5 166t25.5 62.5h-2l50 2l39 -78q40 -78 104.5 -205t148.5 -290t170 -331q203 -397 465 -903q-18 -18 -35 -30q-14 -12 -28.5 -21.5t-20.5 -9.5q-4 0 -43 74.5t-99 196.5t-137 277.5 t-157 319.5q-188 383 -424 868l-590 -1402q-25 14 -43 26q-16 10 -29.5 20.5t-13.5 14.5zM174 711q0 16 4 16h365h150.5h149t135 1t105.5 1l2 -67q-53 -2 -119.5 -4.5t-140 -3.5t-149.5 -3t-148 -4q-168 -4 -346 -6q-2 12 -4 25q-2 10 -3 22t-1 23zM477 1782l98 2l-2 -103 l-92 2zM784 1782l99 2l-2 -103l-93 2z" />
<glyph unicode="&#xc5;" horiz-adv-x="1523" d="M12 45q0 2 28 65.5t74 167t104 235.5t119.5 270.5t119 269.5t102.5 234.5t72.5 166t25.5 62.5h-2l50 2l39 -78q40 -78 104.5 -205t148.5 -290t170 -331q203 -397 465 -903q-18 -18 -35 -30q-14 -12 -28.5 -21.5t-20.5 -9.5q-4 0 -43 74.5t-99 196.5t-137 277.5 t-157 319.5q-188 383 -424 868l-590 -1402q-25 14 -43 26q-16 10 -29.5 20.5t-13.5 14.5zM174 711q0 16 4 16h365h150.5h149t135 1t105.5 1l2 -67q-53 -2 -119.5 -4.5t-140 -3.5t-149.5 -3t-148 -4q-168 -4 -346 -6q-2 12 -4 25q-2 10 -3 22t-1 23zM498 1772v14q2 51 18 88 t42 61.5t58.5 37t67.5 12.5q37 0 74 -13.5t65.5 -40t46 -63.5t17.5 -86t-18.5 -86t-48 -61.5t-66.5 -38t-76 -13.5q-70 0 -125 45t-55 144zM565 1769q0 -55 35 -82.5t78 -27.5q47 0 90 33.5t43 99.5q0 57 -36 86t-83 29q-43 0 -82 -30t-43 -89q0 -4 -1 -9t-1 -10z" />
<glyph unicode="&#xc6;" horiz-adv-x="1585" d="M12 45q0 2 28 65.5t74 167t104 235.5t119.5 270.5t119 269.5t102.5 234.5t72.5 166t25.5 62.5l82 6q53 -2 139.5 -5.5t183.5 -5.5t196.5 -3t177.5 -1h57l2 -67q-100 -4 -221 -5t-231.5 -1h-193.5h-108l25 -1344h148.5t196.5 1t205.5 2t176.5 1l2 -67l-61 -3 q-62 -4 -152 -7t-196.5 -6t-197.5 -6t-152 -5l-62 -2q-4 258 -8 504q-2 104 -3 215.5t-2.5 219t-1.5 205v175.5l-561 -1333q-25 14 -43 26q-16 10 -29.5 20.5t-13.5 14.5zM174 711q0 16 4 16h467h188.5h182.5t157.5 1t114.5 1l2 -67q-53 -2 -129 -4.5t-163 -3.5t-182 -3 t-185 -4q-213 -4 -449 -6q-2 12 -4 25q-2 10 -3 22t-1 23z" />
<glyph unicode="&#xc7;" horiz-adv-x="1202" d="M16 731q0 209 54.5 358.5t141.5 243.5t197.5 138.5t225.5 44.5q139 0 264 -59.5t199 -168.5l-51 -67q-53 98 -154.5 151t-222.5 53q-100 0 -201.5 -39.5t-183.5 -125.5t-133.5 -218.5t-51.5 -316.5q0 -158 47.5 -276.5t122 -197.5t170 -119t193.5 -40q68 0 132 18.5 t121.5 56.5t102.5 95t74 133l88 -65q-37 -78 -94.5 -138.5t-129 -102.5t-152.5 -64.5t-165 -22.5q-111 0 -218 42t-190 130t-134.5 226.5t-51.5 330.5zM592 51q0 -6 16 -6h15.5t17.5 2t18 4l9 -123q10 0 22 2q10 2 23.5 3t29.5 1q27 0 56.5 -5t54.5 -18t41 -39t16 -67 q0 -47 -27.5 -75.5t-67.5 -44t-85 -19.5t-80 -4h-41q-8 0 -16 2v84q66 2 119 10q45 6 83 16.5t38 26.5q0 12 -12.5 21.5t-31 13.5t-40 6t-41.5 2q-23 0 -43.5 -1t-36.5 -3q-18 -2 -35 -4v113v70.5t-2 31.5z" />
<glyph unicode="&#xc8;" horiz-adv-x="1085" d="M10 711q0 16 4 16h303h128h130.5t121 1t100.5 1l2 -67q-106 -4 -240.5 -7.5t-255.5 -7.5q-141 -4 -285 -6q-2 12 -4 25q-2 10 -3 22t-1 23zM70 1518l931 -11l3 -67q-68 -2 -153 -3t-174 -2t-177 -1h-161h-124h-68l25 -1348h829l3 -59l-67 -3q-67 -4 -167 -7t-218 -7 t-220.5 -7t-174 -4t-77.5 -1zM326 1845l57 92l17 -12q16 -12 42.5 -32.5t60.5 -45t68 -51.5l189 -139l-43 -55z" />
<glyph unicode="&#xc9;" horiz-adv-x="1085" d="M10 711q0 16 4 16h303h128h130.5t121 1t100.5 1l2 -67q-106 -4 -240.5 -7.5t-255.5 -7.5q-141 -4 -285 -6q-2 12 -4 25q-2 10 -3 22t-1 23zM70 1518l931 -11l3 -67q-68 -2 -153 -3t-174 -2t-177 -1h-161h-124h-68l25 -1348h829l3 -59l-67 -3q-67 -4 -167 -7t-218 -7 t-220.5 -7t-174 -4t-77.5 -1zM328 1657l188 139q35 27 68.5 51.5t60.5 45t43 32.5l17 12l57 -92l-391 -243z" />
<glyph unicode="&#xca;" horiz-adv-x="1085" d="M10 711q0 16 4 16h303h128h130.5t121 1t100.5 1l2 -67q-106 -4 -240.5 -7.5t-255.5 -7.5q-141 -4 -285 -6q-2 12 -4 25q-2 10 -3 22t-1 23zM70 1518l931 -11l3 -67q-68 -2 -153 -3t-174 -2t-177 -1h-161h-124h-68l25 -1348h829l3 -59l-67 -3q-67 -4 -167 -7t-218 -7 t-220.5 -7t-174 -4t-77.5 -1zM266 1655l18 21q19 22 46.5 54.5t59.5 70.5t59.5 71t46.5 54l18 20h21q10 0 19 1t15 1q4 0 22.5 -21.5t43 -54.5t53.5 -70t53.5 -69.5t40 -53t17.5 -18.5l-76 -53q-2 2 -28.5 43t-61.5 90q-39 57 -88 129l-217 -268z" />
<glyph unicode="&#xcb;" horiz-adv-x="1085" d="M10 711q0 16 4 16h303h128h130.5t121 1t100.5 1l2 -67q-106 -4 -240.5 -7.5t-255.5 -7.5q-141 -4 -285 -6q-2 12 -4 25q-2 10 -3 22t-1 23zM70 1518l931 -11l3 -67q-68 -2 -153 -3t-174 -2t-177 -1h-161h-124h-68l25 -1348h829l3 -59l-67 -3q-67 -4 -167 -7t-218 -7 t-220.5 -7t-174 -4t-77.5 -1zM336 1782l98 2l-2 -103l-92 2zM643 1782l98 2l-2 -103l-92 2z" />
<glyph unicode="&#xcc;" horiz-adv-x="841" d="M14 1493q106 4 234.5 6t240.5 6q131 4 265 8q0 -18 2 -34q0 -14 1 -27.5t1 -19.5q0 -2 -36 -3.5t-96.5 -2.5t-138 -1h-159.5h-163h-149zM16 67.5v20.5q0 2 36 3t96.5 1h138.5t159.5 1t162.5 1h149l2 -67q-106 -4 -234.5 -7.5t-240.5 -7.5q-131 -4 -265 -6q-2 18 -2 35 q-2 14 -2 26.5zM147 1845l58 92l17 -12q16 -12 42.5 -32.5t60 -45t68.5 -51.5l189 -139l-43 -55zM291 1303q0 78 1 124t3 46l76 4l28 -1436q-12 0 -22 2q-10 0 -21.5 1t-21.5 1q-29 0 -29 -6q0 -2 -1 63.5t-3 174t-3 247t-3 279.5t-3 272t-1 228z" />
<glyph unicode="&#xcd;" horiz-adv-x="841" d="M14 1493q106 4 234.5 6t240.5 6q131 4 265 8q0 -18 2 -34q0 -14 1 -27.5t1 -19.5q0 -2 -36 -3.5t-96.5 -2.5t-138 -1h-159.5h-163h-149zM16 67.5v20.5q0 2 36 3t96.5 1h138.5t159.5 1t162.5 1h149l2 -67q-106 -4 -234.5 -7.5t-240.5 -7.5q-131 -4 -265 -6q-2 18 -2 35 q-2 14 -2 26.5zM158 1657l188 139q35 27 69 51.5t60.5 45t42.5 32.5l17 12l57 -92l-391 -243zM291 1303q0 78 1 124t3 46l76 4l28 -1436q-12 0 -22 2q-10 0 -21.5 1t-21.5 1q-29 0 -29 -6q0 -2 -1 63.5t-3 174t-3 247t-3 279.5t-3 272t-1 228z" />
<glyph unicode="&#xce;" horiz-adv-x="841" d="M14 1493q106 4 234.5 6t240.5 6q131 4 265 8q0 -18 2 -34q0 -14 1 -27.5t1 -19.5q0 -2 -36 -3.5t-96.5 -2.5t-138 -1h-159.5h-163h-149zM16 67.5v20.5q0 2 36 3t96.5 1h138.5t159.5 1t162.5 1h149l2 -67q-106 -4 -234.5 -7.5t-240.5 -7.5q-131 -4 -265 -6q-2 18 -2 35 q-2 14 -2 26.5zM70 1655l18 21q18 22 46 54.5t59.5 70.5t59.5 71t46 54l18 20h21q10 0 19.5 1t15.5 1q4 0 22.5 -21.5t43 -54.5t53 -70t53 -69.5t40 -53t17.5 -18.5l-76 -53q-2 2 -28.5 43t-61.5 90q-39 57 -88 129l-217 -268zM291 1303q0 78 1 124t3 46l76 4l28 -1436 q-12 0 -22 2q-10 0 -21.5 1t-21.5 1q-29 0 -29 -6q0 -2 -1 63.5t-3 174t-3 247t-3 279.5t-3 272t-1 228z" />
<glyph unicode="&#xcf;" horiz-adv-x="841" d="M14 1493q106 4 234.5 6t240.5 6q131 4 265 8q0 -18 2 -34q0 -14 1 -27.5t1 -19.5q0 -2 -36 -3.5t-96.5 -2.5t-138 -1h-159.5h-163h-149zM16 67.5v20.5q0 2 36 3t96.5 1h138.5t159.5 1t162.5 1h149l2 -67q-106 -4 -234.5 -7.5t-240.5 -7.5q-131 -4 -265 -6q-2 18 -2 35 q-2 14 -2 26.5zM139 1782l99 2l-2 -103l-93 2zM291 1303q0 78 1 124t3 46l76 4l28 -1436q-12 0 -22 2q-10 0 -21.5 1t-21.5 1q-29 0 -29 -6q0 -2 -1 63.5t-3 174t-3 247t-3 279.5t-3 272t-1 228zM446 1782l99 2l-2 -103l-92 2z" />
<glyph unicode="&#xd0;" horiz-adv-x="1361" d="M14 700.5q0 -8.5 2 -16.5q0 -20 2 -43q121 2 244 6q104 4 226 7t229 8l-2 67q-88 -2 -208 -2h-231h-262v-12v-14.5zM131 1315q0 80 1 128t3 48q78 12 163 19.5t196 7.5q27 0 54 -1t58 -1q170 -6 294 -73t206 -172.5t121 -238.5t39 -272t-38 -271.5t-112 -238t-181.5 -173 t-248.5 -75.5q-29 -2 -61.5 -3t-67.5 -1q-72 0 -144.5 2t-132 5t-97.5 6l-38 3q0 -2 -1 65.5t-3 179.5t-3 254t-3 286.5t-3 281t-1 234.5zM213 1419l25 -1319q31 -4 96 -12t170 -8q67 0 151 6q127 8 225.5 67.5t165 152.5t100.5 210t34 240q0 121 -34 236.5t-104.5 209.5 t-178 156.5t-253.5 75.5q-80 6 -153 6q-86 0 -151.5 -6.5t-92.5 -14.5z" />
<glyph unicode="&#xd1;" horiz-adv-x="1282" d="M25 1331q0 84 1 132t3 48l75 5l29 -1516q-12 0 -22 2q-10 0 -21.5 1t-21.5 1q-29 0 -29 -6q0 -2 -1 67.5t-3 184.5t-3 260t-3 293.5t-3 288t-1 239.5zM70 1376q72 66 182 101.5t235 35.5t250 -37.5t226.5 -116.5t165 -202t63.5 -295l8 -1200l-90 2q-2 4 -3 32t-1 74 v106.5v131.5v408v240.5t-2 183.5q-4 158 -57.5 269.5t-139.5 183t-192.5 105.5t-212.5 34q-131 0 -248 -45.5t-182 -131.5zM274 1700q-2 2 15.5 34.5t47.5 70.5t64.5 69t67.5 31q37 0 68.5 -29t59.5 -63.5t50.5 -63.5t44.5 -29q16 0 44 27t52 59q29 37 62 86l51 -51 q-37 -61 -74 -110q-31 -41 -66.5 -75t-64.5 -34q-35 0 -67.5 28.5t-62 63.5t-56.5 63.5t-47 28.5q-23 0 -45.5 -23.5t-41 -51t-30.5 -51t-12 -21.5l-29 20q-10 8 -20.5 13.5t-10.5 7.5z" />
<glyph unicode="&#xd2;" d="M18 717q0 12 1 25.5t1 27.5q8 190 61.5 329.5t136.5 231.5t186.5 136t211.5 44q119 0 230.5 -49t197.5 -145t137.5 -236.5t51.5 -322.5q-4 -182 -61.5 -323.5t-149.5 -237t-208 -144.5t-232 -49q-109 0 -210.5 43t-180 131t-126 222.5t-47.5 316.5zM104 737 q0 -160 44.5 -280.5t116 -200.5t163.5 -121t188 -41q98 0 193.5 42t170.5 127t120 213t45 300q0 160 -43 281t-115 200.5t-164 119.5t-188 40t-189.5 -40t-167 -120.5t-121 -201.5t-53.5 -283v-35zM418 1845l57 92l17 -12q16 -12 42.5 -32.5t60.5 -45t69 -51.5l188 -139 l-43 -55z" />
<glyph unicode="&#xd3;" d="M18 717q0 12 1 25.5t1 27.5q8 190 61.5 329.5t136.5 231.5t186.5 136t211.5 44q119 0 230.5 -49t197.5 -145t137.5 -236.5t51.5 -322.5q-4 -182 -61.5 -323.5t-149.5 -237t-208 -144.5t-232 -49q-109 0 -210.5 43t-180 131t-126 222.5t-47.5 316.5zM104 737 q0 -160 44.5 -280.5t116 -200.5t163.5 -121t188 -41q98 0 193.5 42t170.5 127t120 213t45 300q0 160 -43 281t-115 200.5t-164 119.5t-188 40t-189.5 -40t-167 -120.5t-121 -201.5t-53.5 -283v-35zM418 1657l188 139q35 27 69 51.5t60.5 45t42.5 32.5l17 12l57 -92 l-391 -243z" />
<glyph unicode="&#xd4;" d="M18 717q0 12 1 25.5t1 27.5q8 190 61.5 329.5t136.5 231.5t186.5 136t211.5 44q119 0 230.5 -49t197.5 -145t137.5 -236.5t51.5 -322.5q-4 -182 -61.5 -323.5t-149.5 -237t-208 -144.5t-232 -49q-109 0 -210.5 43t-180 131t-126 222.5t-47.5 316.5zM104 737 q0 -160 44.5 -280.5t116 -200.5t163.5 -121t188 -41q98 0 193.5 42t170.5 127t120 213t45 300q0 160 -43 281t-115 200.5t-164 119.5t-188 40t-189.5 -40t-167 -120.5t-121 -201.5t-53.5 -283v-35zM334 1655l18 21q19 22 46.5 54.5t59 70.5t59.5 71t47 54l18 20h20 q10 0 19.5 1t15.5 1q4 0 22.5 -21.5t43 -54.5t53 -70t53.5 -69.5t40 -53t17 -18.5l-75 -53q-2 2 -29 43t-62 90q-39 57 -88 129l-217 -268z" />
<glyph unicode="&#xd5;" d="M18 717q0 12 1 25.5t1 27.5q8 190 61.5 329.5t136.5 231.5t186.5 136t211.5 44q119 0 230.5 -49t197.5 -145t137.5 -236.5t51.5 -322.5q-4 -182 -61.5 -323.5t-149.5 -237t-208 -144.5t-232 -49q-109 0 -210.5 43t-180 131t-126 222.5t-47.5 316.5zM104 737 q0 -160 44.5 -280.5t116 -200.5t163.5 -121t188 -41q98 0 193.5 42t170.5 127t120 213t45 300q0 160 -43 281t-115 200.5t-164 119.5t-188 40t-189.5 -40t-167 -120.5t-121 -201.5t-53.5 -283v-35zM311 1700q-2 2 15.5 34.5t47 70.5t64.5 69t68 31q37 0 68.5 -29t59.5 -63.5 t50.5 -63.5t44.5 -29q16 0 44 27t52 59q29 37 62 86l51 -51q-37 -61 -74 -110q-31 -41 -66.5 -75t-64.5 -34q-35 0 -67.5 28.5t-62.5 63.5t-56.5 63.5t-46.5 28.5q-23 0 -45.5 -23.5t-41 -51t-30.5 -51t-12 -21.5l-29 20q-10 8 -20.5 13.5t-10.5 7.5z" />
<glyph unicode="&#xd6;" d="M18 717q0 12 1 25.5t1 27.5q8 190 61.5 329.5t136.5 231.5t186.5 136t211.5 44q119 0 230.5 -49t197.5 -145t137.5 -236.5t51.5 -322.5q-4 -182 -61.5 -323.5t-149.5 -237t-208 -144.5t-232 -49q-109 0 -210.5 43t-180 131t-126 222.5t-47.5 316.5zM104 737 q0 -160 44.5 -280.5t116 -200.5t163.5 -121t188 -41q98 0 193.5 42t170.5 127t120 213t45 300q0 160 -43 281t-115 200.5t-164 119.5t-188 40t-189.5 -40t-167 -120.5t-121 -201.5t-53.5 -283v-35zM414 1782l98 2l-2 -103l-92 2zM721 1782l98 2l-2 -103l-92 2z" />
<glyph unicode="&#xd7;" horiz-adv-x="675" d="M2 909l45 47q106 -96 189 -167.5t143.5 -126t102.5 -90t69 -60.5q63 -55 74 -61l-64 -72l-5 5l-22.5 22.5t-53.5 50t-98.5 92t-155.5 147.5t-224 213zM27 457q92 98 178 192q74 80 155.5 168t141.5 154l49 -43q-70 -80 -149.5 -173t-149.5 -171q-82 -94 -160 -185l-33 29 q-12 10 -23 19.5t-9 9.5z" />
<glyph unicode="&#xd8;" d="M18 717q0 12 1 25.5t1 27.5q8 190 61.5 329.5t136.5 231.5t186.5 136t211.5 44q119 0 230.5 -49t197.5 -145t137.5 -236.5t51.5 -322.5q-4 -182 -61.5 -323.5t-149.5 -237t-208 -144.5t-232 -49q-109 0 -210.5 43t-180 131t-126 222.5t-47.5 316.5zM104 737 q0 -160 44.5 -280.5t116 -200.5t163.5 -121t188 -41q98 0 193.5 42t170.5 127t120 213t45 300q0 160 -43 281t-115 200.5t-164 119.5t-188 40t-189.5 -40t-167 -120.5t-121 -201.5t-53.5 -283v-35zM199 -76q57 125 120 269q53 123 122 276.5t141 314.5q168 379 381 863 q23 -18 43 -31q8 -6 16 -12.5t14 -10.5q8 -6 13 -8q-2 0 -37 -73.5t-90.5 -193.5t-125 -273.5t-143.5 -313.5q-172 -375 -389 -854z" />
<glyph unicode="&#xd9;" horiz-adv-x="1282" d="M16 1509l90 -2q2 -8 3.5 -69.5t1.5 -153.5v-274v-178.5t2 -157.5q2 -158 56 -269.5t139 -183t190.5 -105.5t214.5 -34q66 0 129 11t119.5 34t103.5 55.5t80 75.5l2 -121q-72 -66 -182.5 -101.5t-235.5 -35.5t-250 38t-226 116.5t-164.5 201.5t-63.5 295zM377 1845l57 92 l16 -12q17 -12 43.5 -32.5t60.5 -45t69 -51.5l188 -139l-43 -55zM1083 1513q12 -2 23 -2q10 -2 20.5 -2h20.5q12 0 21.5 1t9.5 6q0 2 1 -83t3 -225.5t3 -317.5t3 -358.5t3 -350.5t1 -292q0 -102 -1 -160.5t-3 -58.5l-76 -4z" />
<glyph unicode="&#xda;" horiz-adv-x="1282" d="M16 1509l90 -2q2 -8 3.5 -69.5t1.5 -153.5v-274v-178.5t2 -157.5q2 -158 56 -269.5t139 -183t190.5 -105.5t214.5 -34q66 0 129 11t119.5 34t103.5 55.5t80 75.5l2 -121q-72 -66 -182.5 -101.5t-235.5 -35.5t-250 38t-226 116.5t-164.5 201.5t-63.5 295zM389 1657 l189 139q35 27 68.5 51.5t60 45t43.5 32.5l16 12l57 -92l-391 -243zM1083 1513q12 -2 23 -2q10 -2 20.5 -2h20.5q12 0 21.5 1t9.5 6q0 2 1 -83t3 -225.5t3 -317.5t3 -358.5t3 -350.5t1 -292q0 -102 -1 -160.5t-3 -58.5l-76 -4z" />
<glyph unicode="&#xdb;" horiz-adv-x="1282" d="M16 1509l90 -2q2 -8 3.5 -69.5t1.5 -153.5v-274v-178.5t2 -157.5q2 -158 56 -269.5t139 -183t190.5 -105.5t214.5 -34q66 0 129 11t119.5 34t103.5 55.5t80 75.5l2 -121q-72 -66 -182.5 -101.5t-235.5 -35.5t-250 38t-226 116.5t-164.5 201.5t-63.5 295zM326 1655l18 21 q18 22 46 54.5t59.5 70.5t59.5 71t46 54l18 20h21q10 0 19.5 1t15.5 1q4 0 22.5 -21.5t43 -54.5t53 -70t53 -69.5t40 -53t17.5 -18.5l-76 -53q-2 2 -28.5 43t-61.5 90q-39 57 -88 129l-217 -268zM1083 1513q12 -2 23 -2q10 -2 20.5 -2h20.5q12 0 21.5 1t9.5 6q0 2 1 -83 t3 -225.5t3 -317.5t3 -358.5t3 -350.5t1 -292q0 -102 -1 -160.5t-3 -58.5l-76 -4z" />
<glyph unicode="&#xdc;" horiz-adv-x="1282" d="M16 1509l90 -2q2 -8 3.5 -69.5t1.5 -153.5v-274v-178.5t2 -157.5q2 -158 56 -269.5t139 -183t190.5 -105.5t214.5 -34q66 0 129 11t119.5 34t103.5 55.5t80 75.5l2 -121q-72 -66 -182.5 -101.5t-235.5 -35.5t-250 38t-226 116.5t-164.5 201.5t-63.5 295zM391 1782l98 2 l-2 -103l-92 2zM698 1782l99 2l-2 -103l-93 2zM1083 1513q12 -2 23 -2q10 -2 20.5 -2h20.5q12 0 21.5 1t9.5 6q0 2 1 -83t3 -225.5t3 -317.5t3 -358.5t3 -350.5t1 -292q0 -102 -1 -160.5t-3 -58.5l-76 -4z" />
<glyph unicode="&#xdd;" horiz-adv-x="1462" d="M8 1454q18 16 35 29q14 10 25.5 20t13.5 13l30 -65q31 -65 80.5 -170t113 -240.5t128 -277.5t127 -277.5t111.5 -242t78 -171.5l28 -64l-57 -35l-31 63q-31 62 -81 166.5t-113.5 237.5t-130.5 273zM530 1657l189 139q35 27 68.5 51.5t60 45t42.5 32.5l17 12l58 -92 l-392 -243zM555 -287q4 0 41 77t93 204t129 289.5t147 332.5q174 397 395 904q23 -16 43 -29q16 -10 29.5 -19.5t13.5 -13.5q0 -2 -35 -78.5t-92 -202.5t-131 -287t-150.5 -329t-150.5 -328.5t-132.5 -286.5t-95 -203t-38.5 -77z" />
<glyph unicode="&#xde;" horiz-adv-x="1001" d="M33 1333q0 84 1 132t3 48l76 5l22 -1522q-10 0 -20 2q-10 0 -20.5 1t-20.5 1q-27 0 -27 -6q0 -2 -1 67.5t-3 184t-3 261t-3 296t-3 289t-1 241.5zM72 1042l2 70q47 4 115.5 10t154.5 6q147 0 257 -28.5t182.5 -76.5t107.5 -109.5t35 -127.5q0 -78 -44 -149.5t-131 -126.5 t-216 -88t-297 -33q-94 0 -164 6v76q31 -2 65.5 -3t73.5 -1q315 0 471 84t156 213q0 57 -35 110.5t-104.5 93.5t-174 64.5t-241.5 24.5q-72 0 -123 -5t-90 -10z" />
<glyph unicode="&#xdf;" horiz-adv-x="1122" d="M33 940q0 47 1 88t1 76q2 135 52 216t121 124t147.5 57.5t131.5 14.5q117 0 201 -25t136.5 -66t77 -94t24.5 -112q0 -61 -23.5 -124t-66.5 -119t-102.5 -103.5t-133.5 -75.5q98 -14 178 -62.5t137.5 -114t88 -144.5t30.5 -154q0 -61 -21.5 -118t-66.5 -100t-115.5 -70.5 t-168.5 -31.5l-420 -6l2 86q31 -2 86 -2h114h110.5t76.5 2q166 10 239.5 78.5t73.5 161.5q0 66 -33.5 135t-96 131.5t-150.5 111.5t-199 72q-10 10 -10 21q0 20 16 24q80 27 146.5 73t114.5 101.5t75 115.5t27 116q0 92 -80 153.5t-262 61.5q-88 -2 -158 -19.5t-118 -57.5 t-73.5 -103.5t-25.5 -155.5v-21l16 -1417q-16 0 -29.5 -1t-23.5 -1q-35 0 -33 2t2 6q0 18 -1 91t-3 177.5t-4 234.5t-4 264t-3 264t-1 239z" />
<glyph unicode="&#xe0;" horiz-adv-x="1103" d="M0 588q0 10 1 20.5t1 20.5q6 156 49 268.5t110.5 186t151.5 109.5t174 36q96 0 190.5 -41t168.5 -119t119 -191.5t45 -261.5q0 -145 -47.5 -256.5t-123 -188.5t-172 -116t-194.5 -39q-90 0 -176 34t-151.5 104.5t-105.5 178t-40 255.5zM82 563q0 -117 32.5 -202t86 -140 t123 -82.5t143.5 -27.5q84 0 167 33.5t147.5 99t104.5 161t40 220.5q0 123 -36 217t-94.5 158.5t-133 98.5t-152.5 34q-74 0 -145.5 -31t-130 -92.5t-98.5 -155.5t-50 -223q-2 -18 -3 -34.5t-1 -33.5zM305 1559l57 92l16 -13q17 -12 44 -32.5t60.5 -45t68.5 -51.5l188 -139 l-43 -55zM920 1096q0 68 1 108.5t3 40.5l75 4l29 -1255q-12 0 -22 2q-10 0 -21.5 1t-21.5 1q-29 0 -29 -6q0 -2 -1 55t-3 152.5t-3 215.5t-3 243.5t-3 238.5t-1 199z" />
<glyph unicode="&#xe1;" horiz-adv-x="1103" d="M0 588q0 10 1 20.5t1 20.5q6 156 49 268.5t110.5 186t151.5 109.5t174 36q96 0 190.5 -41t168.5 -119t119 -191.5t45 -261.5q0 -145 -47.5 -256.5t-123 -188.5t-172 -116t-194.5 -39q-90 0 -176 34t-151.5 104.5t-105.5 178t-40 255.5zM82 563q0 -117 32.5 -202t86 -140 t123 -82.5t143.5 -27.5q84 0 167 33.5t147.5 99t104.5 161t40 220.5q0 123 -36 217t-94.5 158.5t-133 98.5t-152.5 34q-74 0 -145.5 -31t-130 -92.5t-98.5 -155.5t-50 -223q-2 -18 -3 -34.5t-1 -33.5zM305 1370l189 143q35 27 68.5 52.5t60 45t43.5 33.5l16 13l57 -92 l-391 -250zM920 1096q0 68 1 108.5t3 40.5l75 4l29 -1255q-12 0 -22 2q-10 0 -21.5 1t-21.5 1q-29 0 -29 -6q0 -2 -1 55t-3 152.5t-3 215.5t-3 243.5t-3 238.5t-1 199z" />
<glyph unicode="&#xe2;" horiz-adv-x="1103" d="M0 588q0 10 1 20.5t1 20.5q6 156 49 268.5t110.5 186t151.5 109.5t174 36q96 0 190.5 -41t168.5 -119t119 -191.5t45 -261.5q0 -145 -47.5 -256.5t-123 -188.5t-172 -116t-194.5 -39q-90 0 -176 34t-151.5 104.5t-105.5 178t-40 255.5zM82 563q0 -117 32.5 -202t86 -140 t123 -82.5t143.5 -27.5q84 0 167 33.5t147.5 99t104.5 161t40 220.5q0 123 -36 217t-94.5 158.5t-133 98.5t-152.5 34q-74 0 -145.5 -31t-130 -92.5t-98.5 -155.5t-50 -223q-2 -18 -3 -34.5t-1 -33.5zM246 1366l18 22q19 21 46.5 54t59 70.5t59.5 70.5t47 53l18 21h20 q10 0 19.5 1t15.5 1q4 0 22.5 -21.5t43 -54.5t53 -69.5t53 -69.5t40 -53.5t17.5 -18.5l-76 -53q-2 2 -28.5 43t-61.5 90q-39 57 -88 129l-217 -268zM920 1096q0 68 1 108.5t3 40.5l75 4l29 -1255q-12 0 -22 2q-10 0 -21.5 1t-21.5 1q-29 0 -29 -6q0 -2 -1 55t-3 152.5 t-3 215.5t-3 243.5t-3 238.5t-1 199z" />
<glyph unicode="&#xe3;" horiz-adv-x="1103" d="M0 588q0 10 1 20.5t1 20.5q6 156 49 268.5t110.5 186t151.5 109.5t174 36q96 0 190.5 -41t168.5 -119t119 -191.5t45 -261.5q0 -145 -47.5 -256.5t-123 -188.5t-172 -116t-194.5 -39q-90 0 -176 34t-151.5 104.5t-105.5 178t-40 255.5zM82 563q0 -117 32.5 -202t86 -140 t123 -82.5t143.5 -27.5q84 0 167 33.5t147.5 99t104.5 161t40 220.5q0 123 -36 217t-94.5 158.5t-133 98.5t-152.5 34q-74 0 -145.5 -31t-130 -92.5t-98.5 -155.5t-50 -223q-2 -18 -3 -34.5t-1 -33.5zM207 1419q-2 2 15.5 35t47 71t64.5 68.5t67 30.5q37 0 69 -28.5 t59.5 -63.5t50 -63.5t45.5 -28.5q16 0 43.5 26.5t52.5 59.5q29 37 61 86l52 -51q-37 -61 -74 -111q-31 -41 -67 -75t-64 -34q-35 0 -68 29t-62.5 63.5t-56 63.5t-47.5 29q-23 0 -45 -23.5t-40.5 -51.5t-31 -51.5t-12.5 -21.5l-28 21q-10 8 -20.5 13t-10.5 7zM920 1096 q0 68 1 108.5t3 40.5l75 4l29 -1255q-12 0 -22 2q-10 0 -21.5 1t-21.5 1q-29 0 -29 -6q0 -2 -1 55t-3 152.5t-3 215.5t-3 243.5t-3 238.5t-1 199z" />
<glyph unicode="&#xe4;" horiz-adv-x="1103" d="M0 588q0 10 1 20.5t1 20.5q6 156 49 268.5t110.5 186t151.5 109.5t174 36q96 0 190.5 -41t168.5 -119t119 -191.5t45 -261.5q0 -145 -47.5 -256.5t-123 -188.5t-172 -116t-194.5 -39q-90 0 -176 34t-151.5 104.5t-105.5 178t-40 255.5zM82 563q0 -117 32.5 -202t86 -140 t123 -82.5t143.5 -27.5q84 0 167 33.5t147.5 99t104.5 161t40 220.5q0 123 -36 217t-94.5 158.5t-133 98.5t-152.5 34q-74 0 -145.5 -31t-130 -92.5t-98.5 -155.5t-50 -223q-2 -18 -3 -34.5t-1 -33.5zM315 1520l99 2l-2 -103l-93 2zM623 1520l98 2l-2 -103l-92 2zM920 1096 q0 68 1 108.5t3 40.5l75 4l29 -1255q-12 0 -22 2q-10 0 -21.5 1t-21.5 1q-29 0 -29 -6q0 -2 -1 55t-3 152.5t-3 215.5t-3 243.5t-3 238.5t-1 199z" />
<glyph unicode="&#xe5;" horiz-adv-x="1103" d="M0 588q0 10 1 20.5t1 20.5q6 156 49 268.5t110.5 186t151.5 109.5t174 36q96 0 190.5 -41t168.5 -119t119 -191.5t45 -261.5q0 -145 -47.5 -256.5t-123 -188.5t-172 -116t-194.5 -39q-90 0 -176 34t-151.5 104.5t-105.5 178t-40 255.5zM82 563q0 -117 32.5 -202t86 -140 t123 -82.5t143.5 -27.5q84 0 167 33.5t147.5 99t104.5 161t40 220.5q0 123 -36 217t-94.5 158.5t-133 98.5t-152.5 34q-74 0 -145.5 -31t-130 -92.5t-98.5 -155.5t-50 -223q-2 -18 -3 -34.5t-1 -33.5zM315 1477v14q2 51 18.5 88t42 61.5t58.5 37t68 12.5q37 0 73.5 -13.5 t65.5 -40t46.5 -63.5t17.5 -86t-18.5 -86t-48.5 -61.5t-66.5 -38t-75.5 -13.5q-70 0 -125.5 45t-55.5 144zM383 1475q0 -55 35 -83t78 -28q47 0 90 34t43 99q0 57 -36 86t-83 29q-43 0 -82 -30t-43 -89q0 -4 -1 -9t-1 -9zM920 1096q0 68 1 108.5t3 40.5l75 4l29 -1255 q-12 0 -22 2q-10 0 -21.5 1t-21.5 1q-29 0 -29 -6q0 -2 -1 55t-3 152.5t-3 215.5t-3 243.5t-3 238.5t-1 199z" />
<glyph unicode="&#xe6;" horiz-adv-x="2074" d="M0 588q0 10 1 20.5t1 20.5q6 156 49 268.5t110.5 186t151.5 109.5t174 36q96 0 190.5 -41t168.5 -119t119 -191.5t45 -261.5q0 -145 -47.5 -256.5t-123 -188.5t-172 -116t-194.5 -39q-90 0 -176 34t-151.5 104.5t-105.5 178t-40 255.5zM82 563q0 -117 32.5 -202t86 -140 t123 -82.5t143.5 -27.5q84 0 167 33.5t147.5 99t104.5 161t40 220.5q0 123 -36 217t-94.5 158.5t-133 98.5t-152.5 34q-74 0 -145.5 -31t-130 -92.5t-98.5 -155.5t-50 -223q-2 -18 -3 -34.5t-1 -33.5zM920 698q0 45 1 71t3 26l75 4l29 -805q-12 0 -22 2q-10 0 -21.5 1 t-21.5 1q-29 0 -29 -6q0 -2 -1 33.5t-3 96t-3 138.5t-3 158t-3 153.5t-1 126.5zM936 580q0 166 43 286.5t112.5 200.5t158.5 118t184 38q119 0 231.5 -58.5t189.5 -171.5l-51 -67q-55 104 -146 158.5t-194 54.5q-80 0 -159.5 -36t-143 -108.5t-103.5 -182.5t-40 -259 q0 -119 32.5 -208t87 -149.5t125 -90t146.5 -29.5q61 0 121.5 19.5t115 59.5t99.5 100t76 140l88 -65q-37 -78 -90.5 -138.5t-118 -100.5t-136 -60.5t-145.5 -20.5q-92 0 -179 34t-154.5 104.5t-108.5 178t-41 253.5zM993 666q0 16 4 16h310h194.5h182t134 1t50.5 3 q-4 61 -22.5 129t-41.5 111l51 67q20 -29 40 -72.5t35.5 -95t24.5 -103.5t9 -99l-963 -27q-2 12 -4 25q-2 10 -3 22t-1 23z" />
<glyph unicode="&#xe7;" horiz-adv-x="1024" d="M14 580q0 166 43 286.5t113 200.5t159 118t183 38q119 0 231.5 -58.5t190.5 -171.5l-51 -67q-72 98 -168.5 150t-196.5 52q-78 0 -153.5 -33.5t-135 -104t-96.5 -179.5t-37 -256q0 -119 33 -206t87 -144.5t125 -85t144 -27.5q61 0 124 19.5t118 57.5t99 95.5t73 130.5 l88 -65q-37 -78 -90 -138.5t-117.5 -100.5t-136.5 -60.5t-145 -20.5q-92 0 -179.5 34t-155 104.5t-108.5 178t-41 253.5zM489 51q0 -6 17 -6h15t18 2q8 2 18 4l8 -123q10 0 23 2q10 2 23.5 3t29.5 1q27 0 56.5 -5t54 -18t41 -39t16.5 -67q0 -47 -27.5 -75.5t-67.5 -44 t-85 -19.5t-80 -4h-41q-8 0 -16 2v84q66 2 118 10q45 6 83 16.5t38 26.5q0 12 -12 21.5t-30.5 13.5t-40 6t-42.5 2q-23 0 -43 -1t-37 -3q-18 -2 -34 -4v113q0 39 -0.5 70.5t-2.5 31.5z" />
<glyph unicode="&#xe8;" horiz-adv-x="1150" d="M14 580q0 166 43 286.5t113 200.5t159 118t183 38q119 0 231.5 -58.5t190.5 -171.5l-51 -67q-55 104 -148.5 158.5t-197.5 54.5q-80 0 -158 -34t-140.5 -102.5t-101.5 -172t-39 -242.5q0 -119 36 -211t94.5 -154.5t133 -95.5t152.5 -33q117 0 222.5 74t162.5 227l88 -65 q-37 -78 -90 -138.5t-117.5 -100.5t-136.5 -60.5t-145 -20.5q-92 0 -179.5 34t-155 104.5t-108.5 178t-41 253.5zM72 666q0 16 4 16h309h194.5h182.5t134 1t50 3q-4 61 -22.5 129t-40.5 111l51 67q20 -29 39.5 -72.5t35 -95t24.5 -103.5t9 -99l-962 -27q-2 12 -4 25 q-2 10 -3 22t-1 23zM313 1559l58 92l16 -13q16 -12 43 -32.5t60.5 -45t68.5 -51.5l189 -139l-43 -55z" />
<glyph unicode="&#xe9;" horiz-adv-x="1150" d="M14 580q0 166 43 286.5t113 200.5t159 118t183 38q119 0 231.5 -58.5t190.5 -171.5l-51 -67q-55 104 -148.5 158.5t-197.5 54.5q-80 0 -158 -34t-140.5 -102.5t-101.5 -172t-39 -242.5q0 -119 36 -211t94.5 -154.5t133 -95.5t152.5 -33q117 0 222.5 74t162.5 227l88 -65 q-37 -78 -90 -138.5t-117.5 -100.5t-136.5 -60.5t-145 -20.5q-92 0 -179.5 34t-155 104.5t-108.5 178t-41 253.5zM72 666q0 16 4 16h309h194.5h182.5t134 1t50 3q-4 61 -22.5 129t-40.5 111l51 67q20 -29 39.5 -72.5t35 -95t24.5 -103.5t9 -99l-962 -27q-2 12 -4 25 q-2 10 -3 22t-1 23zM311 1370l189 139q35 27 68.5 51.5t60 45t43.5 32.5l16 13l57 -92l-391 -244z" />
<glyph unicode="&#xea;" horiz-adv-x="1150" d="M14 580q0 166 43 286.5t113 200.5t159 118t183 38q119 0 231.5 -58.5t190.5 -171.5l-51 -67q-55 104 -148.5 158.5t-197.5 54.5q-80 0 -158 -34t-140.5 -102.5t-101.5 -172t-39 -242.5q0 -119 36 -211t94.5 -154.5t133 -95.5t152.5 -33q117 0 222.5 74t162.5 227l88 -65 q-37 -78 -90 -138.5t-117.5 -100.5t-136.5 -60.5t-145 -20.5q-92 0 -179.5 34t-155 104.5t-108.5 178t-41 253.5zM72 666q0 16 4 16h309h194.5h182.5t134 1t50 3q-4 61 -22.5 129t-40.5 111l51 67q20 -29 39.5 -72.5t35 -95t24.5 -103.5t9 -99l-962 -27q-2 12 -4 25 q-2 10 -3 22t-1 23zM246 1366l18 22q19 21 46.5 54t59 70.5t59.5 70.5t47 53l18 21h20q10 0 19.5 1t15.5 1q4 0 22.5 -21.5t43 -54.5t53 -69.5t53 -69.5t40 -53.5t17.5 -18.5l-76 -53q-2 2 -28.5 43t-61.5 90q-39 57 -88 129l-217 -268z" />
<glyph unicode="&#xeb;" horiz-adv-x="1150" d="M14 580q0 166 43 286.5t113 200.5t159 118t183 38q119 0 231.5 -58.5t190.5 -171.5l-51 -67q-55 104 -148.5 158.5t-197.5 54.5q-80 0 -158 -34t-140.5 -102.5t-101.5 -172t-39 -242.5q0 -119 36 -211t94.5 -154.5t133 -95.5t152.5 -33q117 0 222.5 74t162.5 227l88 -65 q-37 -78 -90 -138.5t-117.5 -100.5t-136.5 -60.5t-145 -20.5q-92 0 -179.5 34t-155 104.5t-108.5 178t-41 253.5zM72 666q0 16 4 16h309h194.5h182.5t134 1t50 3q-4 61 -22.5 129t-40.5 111l51 67q20 -29 39.5 -72.5t35 -95t24.5 -103.5t9 -99l-962 -27q-2 12 -4 25 q-2 10 -3 22t-1 23zM322 1520l98 2l-2 -103l-92 2zM629 1520l98 2l-2 -103l-92 2z" />
<glyph unicode="&#xec;" horiz-adv-x="493" d="M0 1559l57 92l17 -13q16 -12 42.5 -32.5t60.5 -45t69 -51.5l188 -139l-43 -55zM20 1217v12h379q2 -84 3 -182.5t3.5 -201t3.5 -204.5t3 -197q4 -221 8 -444q-12 0 -23 2q-10 0 -21 1t-22 1q-29 0 -28 -6q0 -2 0 73.5t1 199.5t1 279v312v297l-303 -16q-2 23 -2 43 q-2 8 -2.5 16t-0.5 15z" />
<glyph unicode="&#xed;" horiz-adv-x="493" d="M4 1370l189 139q35 27 68.5 51.5t60 45t42.5 32.5l17 13l57 -92l-391 -244zM20 1217v12h379q2 -84 3 -182.5t3.5 -201t3.5 -204.5t3 -197q4 -221 8 -444q-12 0 -23 2q-10 0 -21 1t-22 1q-29 0 -28 -6q0 -2 0 73.5t1 199.5t1 279v312v297l-303 -16q-2 23 -2 43 q-2 8 -2.5 16t-0.5 15z" />
<glyph unicode="&#xee;" horiz-adv-x="557" d="M0 1366l18 22q19 21 46.5 54t59.5 70.5t59.5 70.5t46.5 53l18 21h20q10 0 19.5 1t15.5 1q4 0 22.5 -21.5t43 -54.5t53.5 -69.5t53.5 -69.5t39.5 -53.5t17 -18.5l-75 -53q-2 2 -29 43t-61 90q-39 57 -88 129l-218 -268zM70 1202v15v12h379q2 -84 3 -182.5t3 -201t3 -204.5 t3 -197q4 -221 8 -444q-12 0 -23 2q-10 0 -21 1t-22 1q-29 0 -28 -6q0 -2 0 73.5t1 199.5t1 279v312v297l-303 -16q-2 23 -2 43q-2 8 -2 16z" />
<glyph unicode="&#xef;" horiz-adv-x="493" d="M20 1217v12h379q2 -84 3 -182.5t3.5 -201t3.5 -204.5t3 -197q4 -221 8 -444q-12 0 -23 2q-10 0 -21 1t-22 1q-29 0 -28 -6q0 -2 0 73.5t1 199.5t1 279v312v297l-303 -16q-2 23 -2 43q-2 8 -2.5 16t-0.5 15zM51 1520l99 2l-3 -103l-92 2zM276 1520l99 2l-2 -103l-92 2z " />
<glyph unicode="&#xf0;" horiz-adv-x="1015" d="M25 465q0 109 36.5 188.5t98 132t139.5 78t162 25.5q70 0 138.5 -17.5t127.5 -52.5q-55 125 -107.5 241t-94.5 204t-67 141l-24 53q0 4 13.5 13.5t29.5 19.5q18 12 43 29q53 -125 111 -265q49 -119 110 -266t127 -299q29 -59 44.5 -117.5t15.5 -123.5q0 -109 -41 -193 t-106.5 -141.5t-150.5 -87t-171 -29.5q-82 0 -160 27.5t-139.5 85t-98 145.5t-36.5 209zM104 454.5q0 -8.5 2 -16.5q6 -88 40 -152.5t83.5 -107.5t110.5 -63.5t125 -20.5q70 0 137.5 23.5t119.5 72t84 118t32 161.5q0 23 1 32t-2 24.5t-15.5 45t-37.5 93.5 q-47 72 -128 106.5t-171 34.5q-70 0 -138 -21.5t-121.5 -63.5t-87.5 -104.5t-34 -144.5v-16.5zM240 993q121 59 235 117q98 49 205.5 103.5t185.5 95.5l31 -60q-94 -51 -201.5 -108.5t-199.5 -106.5l-215 -114l-21 36q-8 14 -15 25.5t-5 11.5z" />
<glyph unicode="&#xf1;" horiz-adv-x="1134" d="M25 1102q0 68 1 108.5t3 40.5l75 4l29 -1255q-12 0 -22 2q-10 0 -21.5 1t-21.5 1q-29 0 -29 -6q0 -2 -1 55.5t-3 152.5t-3 215t-3 243.5t-3 238.5t-1 199zM47 539q0 178 37 308t100.5 214t147.5 125t180 41q94 0 187.5 -42t166 -122t117.5 -195.5t45 -265.5l8 -594l-90 2 q-4 8 -4 43v88v170v129t-2 140q-4 137 -41 241.5t-96.5 175t-135 107.5t-153.5 37q-72 0 -138.5 -31t-121.5 -93.5t-93 -156.5t-48 -223q-25 -72 -39.5 -111t-20.5 -39t-6 52zM221 1419q-2 2 15.5 35t47 71t64.5 68.5t68 30.5q37 0 68.5 -28.5t59 -63.5t50 -63.5t45.5 -28.5 q16 0 44 26.5t52 59.5q29 37 62 86l51 -51q-37 -61 -74 -111q-31 -41 -66.5 -75t-64.5 -34q-35 0 -67.5 29t-62.5 63.5t-56.5 63.5t-46.5 29q-23 0 -45.5 -23.5t-41 -51.5t-30.5 -51.5t-12 -21.5l-29 21q-10 8 -20.5 13t-10.5 7z" />
<glyph unicode="&#xf2;" horiz-adv-x="1089" d="M0 582q0 10 1 20.5t1 20.5q6 156 49 268.5t110.5 186t151.5 109.5t174 36q96 0 190.5 -41t168.5 -119t119 -191.5t45 -261.5q0 -145 -47.5 -256.5t-123 -188.5t-172 -116t-194.5 -39q-90 0 -176 34t-151.5 104.5t-105.5 178t-40 255.5zM84 561q0 -117 34 -202t90 -142 t128 -85t147 -28q82 0 162 32t142.5 94.5t100.5 154.5t38 215q0 133 -35 233.5t-93.5 168t-133 102.5t-152.5 35q-74 0 -146.5 -32t-131 -95.5t-98.5 -159.5t-50 -227q-2 -16 -2 -31.5v-32.5zM303 1559l57 92l16 -13q17 -12 43.5 -32.5t60.5 -45t69 -51.5l188 -139l-43 -55z " />
<glyph unicode="&#xf3;" horiz-adv-x="1089" d="M0 582q0 10 1 20.5t1 20.5q6 156 49 268.5t110.5 186t151.5 109.5t174 36q96 0 190.5 -41t168.5 -119t119 -191.5t45 -261.5q0 -145 -47.5 -256.5t-123 -188.5t-172 -116t-194.5 -39q-90 0 -176 34t-151.5 104.5t-105.5 178t-40 255.5zM84 561q0 -117 34 -202t90 -142 t128 -85t147 -28q82 0 162 32t142.5 94.5t100.5 154.5t38 215q0 133 -35 233.5t-93.5 168t-133 102.5t-152.5 35q-74 0 -146.5 -32t-131 -95.5t-98.5 -159.5t-50 -227q-2 -16 -2 -31.5v-32.5zM283 1370l188 139q35 27 68.5 51.5t60.5 45t43 32.5l16 13l58 -92l-391 -244z " />
<glyph unicode="&#xf4;" horiz-adv-x="1089" d="M0 582q0 10 1 20.5t1 20.5q6 156 49 268.5t110.5 186t151.5 109.5t174 36q96 0 190.5 -41t168.5 -119t119 -191.5t45 -261.5q0 -145 -47.5 -256.5t-123 -188.5t-172 -116t-194.5 -39q-90 0 -176 34t-151.5 104.5t-105.5 178t-40 255.5zM84 561q0 -117 34 -202t90 -142 t128 -85t147 -28q82 0 162 32t142.5 94.5t100.5 154.5t38 215q0 133 -35 233.5t-93.5 168t-133 102.5t-152.5 35q-74 0 -146.5 -32t-131 -95.5t-98.5 -159.5t-50 -227q-2 -16 -2 -31.5v-32.5zM221 1366l19 22q18 21 45.5 54t59.5 70.5t59.5 70.5t45.5 53l19 21h20 q10 0 19.5 1t15.5 1q4 0 22.5 -21.5t43 -54.5t53.5 -69.5t53.5 -69.5t40 -53.5t17.5 -18.5l-76 -53q-2 2 -28.5 43t-61.5 90q-39 57 -88 129l-217 -268z" />
<glyph unicode="&#xf5;" horiz-adv-x="1089" d="M0 582q0 10 1 20.5t1 20.5q6 156 49 268.5t110.5 186t151.5 109.5t174 36q96 0 190.5 -41t168.5 -119t119 -191.5t45 -261.5q0 -145 -47.5 -256.5t-123 -188.5t-172 -116t-194.5 -39q-90 0 -176 34t-151.5 104.5t-105.5 178t-40 255.5zM84 561q0 -117 34 -202t90 -142 t128 -85t147 -28q82 0 162 32t142.5 94.5t100.5 154.5t38 215q0 133 -35 233.5t-93.5 168t-133 102.5t-152.5 35q-74 0 -146.5 -32t-131 -95.5t-98.5 -159.5t-50 -227q-2 -16 -2 -31.5v-32.5zM201 1419q-2 2 15 35t47 71t64.5 68.5t67.5 30.5q37 0 69 -28.5t59.5 -63.5 t50 -63.5t44.5 -28.5q16 0 44 26.5t53 59.5q29 37 61 86l51 -51q-37 -61 -73 -111q-31 -41 -67 -75t-64 -34q-35 0 -68 29t-62.5 63.5t-56 63.5t-47.5 29q-23 0 -45 -23.5t-40.5 -51.5t-31 -51.5t-12.5 -21.5l-29 21q-10 8 -20 13t-10 7z" />
<glyph unicode="&#xf6;" horiz-adv-x="1089" d="M0 582q0 10 1 20.5t1 20.5q6 156 49 268.5t110.5 186t151.5 109.5t174 36q96 0 190.5 -41t168.5 -119t119 -191.5t45 -261.5q0 -145 -47.5 -256.5t-123 -188.5t-172 -116t-194.5 -39q-90 0 -176 34t-151.5 104.5t-105.5 178t-40 255.5zM84 561q0 -117 34 -202t90 -142 t128 -85t147 -28q82 0 162 32t142.5 94.5t100.5 154.5t38 215q0 133 -35 233.5t-93.5 168t-133 102.5t-152.5 35q-74 0 -146.5 -32t-131 -95.5t-98.5 -159.5t-50 -227q-2 -16 -2 -31.5v-32.5zM291 1520l98 2l-2 -103l-92 2zM598 1520l98 2l-2 -103l-92 2z" />
<glyph unicode="&#xf7;" horiz-adv-x="784" d="M0 700.5v14.5v12h262h230.5t207.5 2l2 -67q-106 -4 -228 -7.5t-226 -7.5q-123 -4 -244 -6q-2 23 -2 43q-2 8 -2 16.5zM289 905l98 2l-2 -102l-92 2zM293 578l98 2l-2 -103l-92 2z" />
<glyph unicode="&#xf8;" horiz-adv-x="1089" d="M0 582q0 10 1 20.5t1 20.5q6 156 49 268.5t110.5 186t151.5 109.5t174 36q96 0 190.5 -41t168.5 -119t119 -191.5t45 -261.5q0 -145 -47.5 -256.5t-123 -188.5t-172 -116t-194.5 -39q-90 0 -176 34t-151.5 104.5t-105.5 178t-40 255.5zM84 561q0 -117 34 -202t90 -142 t128 -85t147 -28q82 0 162 32t142.5 94.5t100.5 154.5t38 215q0 133 -35 233.5t-93.5 168t-133 102.5t-152.5 35q-74 0 -146.5 -32t-131 -95.5t-98.5 -159.5t-50 -227q-2 -16 -2 -31.5v-32.5zM131 -80l328 737q143 324 325 740q23 -18 43 -31q8 -6 16.5 -12t14.5 -11 q8 -6 12 -8q-2 0 -31.5 -63.5t-76.5 -165.5t-107.5 -233.5t-124.5 -268.5q-147 -322 -333 -731z" />
<glyph unicode="&#xf9;" horiz-adv-x="1122" d="M18 1221l91 -2q4 -20 4 -132v-172v-126.5t2 -139.5q2 -137 40 -242.5t97 -176t134 -106.5t153 -36q70 0 138 31t123.5 93t93.5 156.5t48 223.5q25 70 39 109.5t20 39.5t7 -51q0 -178 -37 -308t-100.5 -214t-148.5 -125t-181 -41q-94 0 -186.5 42t-165 122t-117.5 195.5 t-45 265.5zM305 1559l57 92l16 -13q17 -12 44 -32.5t60.5 -45t68.5 -51.5l188 -139l-43 -55zM922 1229q12 -2 22 -2q10 -2 20.5 -2h20.5q12 0 21.5 1t9.5 5q0 2 1 -54.5t3 -149.5t3 -212t3 -240.5t3 -234.5t1 -195q0 -68 -1 -107.5t-3 -39.5l-76 -4z" />
<glyph unicode="&#xfa;" horiz-adv-x="1122" d="M18 1221l91 -2q4 -20 4 -132v-172v-126.5t2 -139.5q2 -137 40 -242.5t97 -176t134 -106.5t153 -36q70 0 138 31t123.5 93t93.5 156.5t48 223.5q25 70 39 109.5t20 39.5t7 -51q0 -178 -37 -308t-100.5 -214t-148.5 -125t-181 -41q-94 0 -186.5 42t-165 122t-117.5 195.5 t-45 265.5zM305 1370l189 139q35 27 68.5 51.5t60 45t43.5 32.5l16 13l57 -92l-391 -244zM922 1229q12 -2 22 -2q10 -2 20.5 -2h20.5q12 0 21.5 1t9.5 5q0 2 1 -54.5t3 -149.5t3 -212t3 -240.5t3 -234.5t1 -195q0 -68 -1 -107.5t-3 -39.5l-76 -4z" />
<glyph unicode="&#xfb;" horiz-adv-x="1122" d="M18 1221l91 -2q4 -20 4 -132v-172v-126.5t2 -139.5q2 -137 40 -242.5t97 -176t134 -106.5t153 -36q70 0 138 31t123.5 93t93.5 156.5t48 223.5q25 70 39 109.5t20 39.5t7 -51q0 -178 -37 -308t-100.5 -214t-148.5 -125t-181 -41q-94 0 -186.5 42t-165 122t-117.5 195.5 t-45 265.5zM246 1366l18 22q19 21 46.5 54t59 70.5t59.5 70.5t47 53l18 21h20q10 0 19.5 1t15.5 1q4 0 22.5 -21.5t43 -54.5t53 -69.5t53 -69.5t40 -53.5t17.5 -18.5l-76 -53q-2 2 -28.5 43t-61.5 90q-39 57 -88 129l-217 -268zM922 1229q12 -2 22 -2q10 -2 20.5 -2h20.5 q12 0 21.5 1t9.5 5q0 2 1 -54.5t3 -149.5t3 -212t3 -240.5t3 -234.5t1 -195q0 -68 -1 -107.5t-3 -39.5l-76 -4z" />
<glyph unicode="&#xfc;" horiz-adv-x="1122" d="M18 1221l91 -2q4 -20 4 -132v-172v-126.5t2 -139.5q2 -137 40 -242.5t97 -176t134 -106.5t153 -36q70 0 138 31t123.5 93t93.5 156.5t48 223.5q25 70 39 109.5t20 39.5t7 -51q0 -178 -37 -308t-100.5 -214t-148.5 -125t-181 -41q-94 0 -186.5 42t-165 122t-117.5 195.5 t-45 265.5zM315 1520l99 2l-2 -103l-93 2zM623 1520l98 2l-2 -103l-92 2zM922 1229q12 -2 22 -2q10 -2 20.5 -2h20.5q12 0 21.5 1t9.5 5q0 2 1 -54.5t3 -149.5t3 -212t3 -240.5t3 -234.5t1 -195q0 -68 -1 -107.5t-3 -39.5l-76 -4z" />
<glyph unicode="&#xfd;" horiz-adv-x="1243" d="M12 1157q18 16 35 31q14 10 27.5 20.5t21.5 10.5q2 0 28 -51.5t64.5 -135.5t88 -190.5t99.5 -218t98 -218t85 -190.5t59 -134l23 -50l-57 -35q-4 -4 -30 44t-67 129t-92 185.5t-104 214.5q-125 258 -279 588zM12 1157q18 16 35 31q14 10 27.5 20.5t21.5 10.5 q2 0 28 -51.5t64.5 -135.5t88 -190.5t99.5 -218t98 -218t85 -190.5t59 -134l23 -50l-57 -35q-4 -4 -30 44t-67 129t-92 185.5t-104 214.5q-125 258 -279 588zM387 1370l188 139q35 27 69 51.5t60.5 45t43.5 32.5l16 13l57 -92l-391 -244zM420 -287q4 0 34.5 64.5t79 171 t108.5 243t122 277.5q145 334 330 756q23 -16 43 -29q16 -10 29.5 -19.5t13.5 -13.5q0 -2 -30 -66.5t-78 -170t-109.5 -239.5t-126 -274.5t-127 -274.5t-111.5 -238.5t-80 -169t-33 -64.5z" />
<glyph unicode="&#xfe;" horiz-adv-x="935" d="M33 1292q0 102 1 161.5t3 59.5l76 5l22 -1860q-10 0 -20 2q-10 0 -20.5 1t-20.5 1q-27 0 -27 -6q0 -2 -1 84t-3 226t-3 318.5t-3 361.5t-3 353t-1 293zM72 1073q61 78 140 114t163 36q88 0 174 -41t153.5 -119t108.5 -191.5t41 -261.5q0 -145 -43 -256.5t-113.5 -188.5 t-160 -116t-179.5 -39q-78 0 -149.5 30t-130.5 89l6 135q51 -80 127 -120t158 -40q74 0 146.5 32t128.5 94.5t91 155.5t35 216q0 131 -31.5 231.5t-84 168t-119 102.5t-136.5 35q-88 0 -171 -55.5t-140 -168.5z" />
<glyph unicode="&#xff;" horiz-adv-x="1243" d="M12 1157q18 16 35 31q14 10 27.5 20.5t21.5 10.5q2 0 28 -51.5t64.5 -135.5t88 -190.5t99.5 -218t98 -218t85 -190.5t59 -134l23 -50l-57 -35q-4 -4 -30 44t-67 129t-92 185.5t-104 214.5q-125 258 -279 588zM12 1157q18 16 35 31q14 10 27.5 20.5t21.5 10.5 q2 0 28 -51.5t64.5 -135.5t88 -190.5t99.5 -218t98 -218t85 -190.5t59 -134l23 -50l-57 -35q-4 -4 -30 44t-67 129t-92 185.5t-104 214.5q-125 258 -279 588zM379 1520l98 2l-2 -103l-92 2zM420 -287q4 0 34.5 64.5t79 171t108.5 243t122 277.5q145 334 330 756 q23 -16 43 -29q16 -10 29.5 -19.5t13.5 -13.5q0 -2 -30 -66.5t-78 -170t-109.5 -239.5t-126 -274.5t-127 -274.5t-111.5 -238.5t-80 -169t-33 -64.5zM686 1520l98 2l-2 -103l-92 2z" />
<glyph unicode="&#x152;" horiz-adv-x="1433" d="M-2 721q0 199 53 346t139 245.5t194 146.5t218 52q10 0 69.5 -1t145.5 -2t185.5 -1h191.5h156l2 -67q-90 -4 -191.5 -6t-200 -5.5t-182.5 -5.5t-139 -4l12 -692h236t258 2l2 -67h-494l11 -570q35 0 106.5 -1t159.5 -3t182 -3t176 -1h62l2 -68q-104 -4 -231.5 -6t-241 -4 t-193.5 -3t-90 -1h-18q-109 0 -212.5 43t-185.5 132t-132 224.5t-50 319.5zM84 737q0 -150 42 -264.5t110.5 -194t155.5 -124.5t177 -56l-6 543h-53q-2 12 -4 25q-2 10 -3 22t-1 23q0 16 4 16h55q0 104 -1 205.5t-2 191.5t-1 164v123q-86 -14 -169 -61t-149.5 -127 t-108.5 -193t-46 -258v-35z" />
<glyph unicode="&#x153;" horiz-adv-x="1849" d="M14 582q0 166 42 286.5t111 199.5t156 117t179 38q117 0 227.5 -58.5t185.5 -171.5l-51 -65q-59 104 -149 157.5t-189 53.5q-78 0 -153.5 -35t-137 -107.5t-99.5 -181t-38 -256.5q0 -115 34 -201t90.5 -143t128 -85t147.5 -28q98 0 191 45.5t159 137.5l43 -78 q-78 -98 -185.5 -147.5t-220.5 -49.5q-90 0 -175 34t-150.5 104.5t-105.5 178t-40 255.5zM752 580q0 166 41 286.5t108.5 200.5t154.5 118t177 38q117 0 227.5 -58.5t188.5 -171.5l-52 -67q-55 104 -146 158.5t-194 54.5q-78 0 -153.5 -34t-136 -102.5t-98.5 -172 t-38 -244.5q0 -119 35 -209t91.5 -151.5t130 -93.5t153.5 -32q117 0 226.5 69t181.5 216l75 -55q-37 -78 -90 -138.5t-117.5 -100.5t-136 -60.5t-145.5 -20.5q-92 0 -179 34t-154.5 104.5t-108.5 178t-41 253.5zM809 666q0 16 4 16q240 0 428 2q80 0 156 1t135 2t95 2t34 3 q-4 61 -22.5 126t-41.5 108l52 67q20 -29 39.5 -72.5t35 -95t24.5 -103.5t9 -99l-940 -27q-2 12 -4 25q-2 10 -3 22t-1 23z" />
<glyph unicode="&#x178;" horiz-adv-x="1462" d="M8 1454q18 16 35 29q14 10 25.5 20t13.5 13l30 -65q31 -65 80.5 -170t113 -240.5t128 -277.5t127 -277.5t111.5 -242t78 -171.5l28 -64l-57 -35l-31 63q-31 62 -81 166.5t-113.5 237.5t-130.5 273zM516 1782l98 2l-2 -103l-92 2zM555 -287q4 0 41 77t93 204t129 289.5 t147 332.5q174 397 395 904q23 -16 43 -29q16 -10 29.5 -19.5t13.5 -13.5q0 -2 -35 -78.5t-92 -202.5t-131 -287t-150.5 -329t-150.5 -328.5t-132.5 -286.5t-95 -203t-38.5 -77zM823 1782l99 2l-2 -103l-93 2z" />
<glyph unicode="&#x2c6;" horiz-adv-x="618" d="M20 1655l18 21q19 22 47 54.5t59.5 70.5t59 71t46.5 54l18 20h21q10 0 19 1t16 1q4 0 22.5 -21.5t43 -54.5t53 -70t53 -69.5t40 -53t17.5 -18.5l-76 -53q-2 2 -28.5 43t-61.5 90q-39 57 -88 129l-217 -268z" />
<glyph unicode="&#x2dc;" horiz-adv-x="690" d="M8 1700q-2 2 15.5 34.5t47 70.5t64.5 69t68 31q37 0 68.5 -29t59 -63.5t50 -63.5t45.5 -29q16 0 44 27t52 59q29 37 62 86l51 -51q-37 -61 -74 -110q-31 -41 -66.5 -75t-64.5 -34q-35 0 -67.5 28.5t-62.5 63.5t-56.5 63.5t-46.5 28.5q-23 0 -45.5 -23.5t-41 -51 t-30.5 -51t-12 -21.5l-29 20q-10 8 -20.5 13.5t-10.5 7.5z" />
<glyph unicode="&#x2000;" horiz-adv-x="992" />
<glyph unicode="&#x2001;" horiz-adv-x="1985" />
<glyph unicode="&#x2002;" horiz-adv-x="992" />
<glyph unicode="&#x2003;" horiz-adv-x="1985" />
<glyph unicode="&#x2004;" horiz-adv-x="661" />
<glyph unicode="&#x2005;" horiz-adv-x="496" />
<glyph unicode="&#x2006;" horiz-adv-x="330" />
<glyph unicode="&#x2007;" horiz-adv-x="330" />
<glyph unicode="&#x2008;" horiz-adv-x="248" />
<glyph unicode="&#x2009;" horiz-adv-x="397" />
<glyph unicode="&#x200a;" horiz-adv-x="110" />
<glyph unicode="&#x2010;" horiz-adv-x="659" d="M0 700.5v14.5v12h201h187t190 2l2 -67q-106 -4 -209 -7.5t-185 -7.5q-96 -4 -182 -6q-2 23 -2 43q-2 8 -2 16.5z" />
<glyph unicode="&#x2011;" horiz-adv-x="659" d="M0 700.5v14.5v12h201h187t190 2l2 -67q-106 -4 -209 -7.5t-185 -7.5q-96 -4 -182 -6q-2 23 -2 43q-2 8 -2 16.5z" />
<glyph unicode="&#x2012;" horiz-adv-x="659" d="M0 700.5v14.5v12h201h187t190 2l2 -67q-106 -4 -209 -7.5t-185 -7.5q-96 -4 -182 -6q-2 23 -2 43q-2 8 -2 16.5z" />
<glyph unicode="&#x2013;" horiz-adv-x="784" d="M0 700.5v14.5v12h262h230.5t207.5 2l2 -67q-106 -4 -228 -7.5t-226 -7.5q-123 -4 -244 -6q-2 23 -2 43q-2 8 -2 16.5z" />
<glyph unicode="&#x2014;" horiz-adv-x="966" d="M0 700.5v14.5v12h354h148h146.5t132 1t104.5 1l2 -67q-53 -2 -119 -4.5t-138.5 -3.5t-146 -3t-143.5 -4q-164 -4 -336 -6q-2 23 -2 43q-2 8 -2 16.5z" />
<glyph unicode="&#x2018;" horiz-adv-x="296" d="M6 1493l109 51l5 -14t13 -37t18.5 -50.5t22.5 -58.5q25 -70 59 -157l-59 -27z" />
<glyph unicode="&#x2019;" horiz-adv-x="296" d="M6 1227q33 88 60 157q23 59 41 108.5t18 51.5l108 -51l-167 -293z" />
<glyph unicode="&#x201a;" horiz-adv-x="251" d="M45 125h72h26q0 -2 -2 -53.5t-4 -112.5q-4 -72 -6 -166l-68 -6z" />
<glyph unicode="&#x201c;" horiz-adv-x="507" d="M6 1493l109 51l5 -14t13 -37t18.5 -50.5t22.5 -58.5q25 -70 59 -157l-59 -27zM215 1493l109 51l5 -14q5 -14 13 -37t18.5 -50.5t22.5 -58.5q25 -70 59 -157l-59 -27z" />
<glyph unicode="&#x201d;" horiz-adv-x="507" d="M14 1227q33 88 60 157q23 59 41 108.5t18 51.5l109 -51l-168 -293zM223 1227q33 88 60 157q23 59 41 108.5t18 51.5l109 -51l-168 -293z" />
<glyph unicode="&#x201e;" horiz-adv-x="415" d="M45 125h72h26q0 -2 -2 -53.5t-4 -112.5q-4 -72 -6 -166l-68 -6zM209 125h72h26q0 -2 -2 -53.5t-4 -112.5q-4 -72 -6 -166l-68 -6z" />
<glyph unicode="&#x2022;" horiz-adv-x="352" d="M18 678q0 4 1 10t1 10q4 72 46.5 107t89.5 35q49 0 89 -35t40 -103q0 -78 -46 -117.5t-98 -39.5q-47 0 -85 33.5t-38 99.5z" />
<glyph unicode="&#x2026;" horiz-adv-x="741" d="M43 125l121 4l-2 -127l-113 2zM268 125l121 4l-2 -127l-113 2zM492 125l120 4l-2 -127l-112 2z" />
<glyph unicode="&#x202f;" horiz-adv-x="397" />
<glyph unicode="&#x2039;" horiz-adv-x="851" d="M8 655q0 84 51 174q14 27 51 59t86.5 65.5t105.5 67.5t114 64q133 72 293 148q14 -23 26 -41q4 -8 9.5 -15.5t9.5 -13.5q4 -8 8 -12l-37 -15q-37 -16 -95.5 -42.5t-129 -60.5t-137 -69.5t-121 -71.5t-78.5 -65q-59 -72 -64 -155q0 -78 64 -170q16 -25 51 -56.5t79 -65.5 t96 -70t104 -68q121 -78 262 -162q-16 -20 -27 -39l-24 -41q0 -2 -40 23.5t-101.5 67.5t-136.5 95.5t-144.5 106.5t-125 100t-79.5 76q-37 45 -53.5 91t-16.5 95z" />
<glyph unicode="&#x203a;" horiz-adv-x="835" d="M6 1151q4 4 8 12q8 14 19 29q10 18 26 41q160 -76 293 -148q57 -31 113.5 -64.5t106 -67t85.5 -65.5t52 -59q51 -90 51 -174q0 -98 -70 -186q-25 -29 -80 -76t-124.5 -100t-144.5 -106.5t-136.5 -95.5t-101.5 -67.5t-40 -23.5q-4 4 -8 12l-9 13.5t-9 15.5q-10 18 -25 39 q141 84 262 162q51 33 102.5 68.5t96.5 69.5t79 65.5t52 56.5q61 88 62 170q0 82 -62 155q-25 29 -79 65t-120.5 71.5t-137 69.5t-129 60.5t-95.5 42.5z" />
<glyph unicode="&#x205f;" horiz-adv-x="496" />
<glyph unicode="&#x20ac;" horiz-adv-x="995" d="M31 600v14v13h334h139h139t128 1t103 1l3 -68q-53 -2 -118 -4t-133.5 -3t-139 -3t-136.5 -4q-156 -4 -315 -6q-2 23 -2 43q-2 8 -2 16zM31 807v14v13h334h139h139t128 1t103 1l3 -68q-53 -2 -118 -4t-133.5 -3t-139 -3t-136.5 -4q-156 -4 -315 -6q-2 23 -2 43q-2 8 -2 16 zM119 735q0 209 45 356.5t117.5 241.5t166 138.5t191.5 44.5q70 0 136.5 -20.5t125.5 -57.5l-49 -60q-84 47 -180 47q-84 0 -168 -39.5t-150.5 -125.5t-108.5 -219.5t-42 -317.5q0 -158 38 -275.5t100 -196.5t141 -119t161 -40q55 0 110.5 18.5t104.5 55.5l60 -70 q-135 -94 -291 -94q-96 0 -187.5 42t-163 131t-114.5 227.5t-43 332.5z" />
<glyph unicode="&#x2122;" horiz-adv-x="1003" d="M10 1499q39 0 103.5 1t128.5 3q74 2 153 4l2 -53h-161q-66 0 -129.5 -1t-94.5 -1zM203 1415q0 53 2 53l51 25l12 -530h-59l-1 52t-2 124.5t-2 149.5t-1 126zM442 1407v72.5t2 27.5l52 2l10 -546h-31h-19.5t-9.5 -2t-1 45t-1 116.5t-1 147.5t-1 137zM483 1395v65 q23 20 47.5 29.5t49.5 9.5q66 0 118 -59.5t54 -165.5l4 -309h-58q-4 18 -3 62t2 97.5t-1 110.5t-13 103t-34.5 77t-66.5 31q-55 0 -99 -51zM633 1460q41 39 100 39q72 0 131.5 -58.5t61.5 -166.5l4 -309h-58q-2 4 -2 23.5v47.5v150q0 139 -30.5 201.5t-100.5 62.5 q-41 0 -80 -27z" />
<glyph unicode="&#x25fc;" horiz-adv-x="1228" d="M0 0v1229h1229v-1229h-1229z" />
<glyph unicode="&#xfb01;" horiz-adv-x="862" d="M0 700.5v14.5v12h748q4 -170 6 -304t6 -228q4 -111 8 -195q-12 0 -23 2q-10 0 -21 1t-22 1q-29 0 -28 -6q0 -4 -2 41t-4 131t-4 210t-2 279q-104 -4 -219 -6t-214 -6q-115 -4 -225 -6q-2 23 -2 43q-2 8 -2 16.5zM360 952q0 72 10.5 166t44.5 180t97 146.5t170 66.5 l25 -79q-94 -8 -147.5 -63.5t-80 -137.5t-34 -179.5t-7.5 -189.5q0 -25 2 -75t5.5 -114.5t7.5 -139t8 -148.5q8 -172 22 -377q-12 0 -24 2q-10 0 -24.5 1t-24.5 1q-25 0 -25 -4q-6 233 -10 418q-2 78 -3 152.5t-2 132t-2 92.5t-1 33t-3.5 30.5t-3.5 85.5z" />
<glyph unicode="&#xfb02;" horiz-adv-x="903" d="M0 700.5v14.5v12q25 -2 53 -2h135q41 0 87.5 1t93.5 1q0 68 -1 89.5t-3.5 32.5t-3.5 30.5t-1 85.5q0 74 11.5 168t47.5 177t104.5 142t181.5 66l75 4l29 -1522q-12 0 -23 2q-10 0 -21 1t-22 1q-29 0 -28 -6q0 -2 -1 45t-2 129t-2 190.5t-2 228.5t-2 242.5t-2.5 235.5 t-2.5 206t-1 152q-96 -12 -149 -70.5t-77.5 -139t-30 -175t-5.5 -180.5q0 -18 1 -55t3 -80q41 0 81 1t75 1l2 -67l-156 -5q4 -98 11.5 -210.5t13.5 -210.5q8 -113 14 -228q-12 0 -24 2q-10 0 -23.5 1t-23.5 1q-23 0 -27 -4q0 2 -2 69.5t-4 165t-4 209t-4 201.5 q-76 -4 -142.5 -5t-115.5 -3q-59 -2 -109 -4q-2 23 -2 43q-2 8 -2 16.5z" />
</font>
</defs>
</svg>
